/* XPM */
static char * brock_xpm[] = {
"64 64 116 2",
"  	c #784615",
". 	c #7B4918",
"+ 	c #7A4817",
"@ 	c #774514",
"# 	c #7C4A19",
"$ 	c #82501F",
"% 	c #845221",
"& 	c #612F00",
"* 	c #875524",
"= 	c #855223",
"- 	c #875425",
"; 	c #774415",
"> 	c #5D2A00",
", 	c #7B4819",
"' 	c #754213",
") 	c #7C491A",
"! 	c #7A4718",
"~ 	c #794617",
"{ 	c #824F20",
"] 	c #784516",
"^ 	c #713E0F",
"/ 	c #683506",
"( 	c #764314",
"_ 	c #794716",
": 	c #764413",
"< 	c #895726",
"[ 	c #683605",
"} 	c #814F1E",
"| 	c #6A3807",
"1 	c #754312",
"2 	c #7F4D1C",
"3 	c #7D4A1B",
"4 	c #5B2800",
"5 	c #814E1F",
"6 	c #744112",
"7 	c #835021",
"8 	c #693607",
"9 	c #6C390A",
"0 	c #804E1D",
"a 	c #6D3B0A",
"b 	c #855322",
"c 	c #602D00",
"d 	c #6E3B0C",
"e 	c #734011",
"f 	c #633001",
"g 	c #6D3A0B",
"h 	c #7E4C1B",
"i 	c #703E0D",
"j 	c #6F3C0D",
"k 	c #6B3809",
"l 	c #673405",
"m 	c #6A3708",
"n 	c #693706",
"o 	c #7D4B1A",
"p 	c #744211",
"q 	c #6B3908",
"r 	c #804D1E",
"s 	c #5C2900",
"t 	c #622F00",
"u 	c #7F4C1D",
"v 	c #865324",
"w 	c #845122",
"x 	c #946132",
"y 	c #72400F",
"z 	c #865423",
"A 	c #6C3A09",
"B 	c #673504",
"C 	c #5F2C00",
"D 	c #663304",
"E 	c #612E00",
"F 	c #8A5728",
"G 	c #734110",
"H 	c #5D2B00",
"I 	c #623000",
"J 	c #5E2B00",
"K 	c #5F2D00",
"L 	c #643102",
"M 	c #653203",
"N 	c #602E00",
"O 	c #5C2A00",
"P 	c #653302",
"Q 	c #643201",
"R 	c #885625",
"S 	c #5E2C00",
"T 	c #936031",
"U 	c #7E4B1C",
"V 	c #8C592A",
"W 	c #5A2700",
"X 	c #946231",
"Y 	c #663403",
"Z 	c #885526",
"` 	c #835120",
" .	c #895627",
"..	c #562300",
"+.	c #915E2F",
"@.	c #8A5827",
"#.	c #592700",
"$.	c #633100",
"%.	c #6F3D0C",
"&.	c #5B2900",
"*.	c #6E3C0B",
"=.	c #713F0E",
"-.	c #8C5A29",
";.	c #8B5928",
">.	c #8D5B2A",
",.	c #936130",
"'.	c #582600",
").	c #986635",
"!.	c #5A2800",
"~.	c #925F30",
"{.	c #723F10",
"].	c #905E2D",
"^.	c #703D0E",
"/.	c #956332",
"(.	c #592600",
"_.	c #915F2E",
"  . + @ # $ % & * = - ; > , ' ) ! ' ~ ! ~ ~ ~ { ] ] ^ ) ~ / > ( _ + . _ _ _ _ @   # @ _ + . : < [ :     _   +   } | : .   . 1   ",
"+ + _ + @ } [   2 3 { 3 4 ( ~ ! 5 , ! ; ~ ) ( 6 ) = 7 ~ 6 8 9 3       @   + + _ @ .   + +     0 |   + _ _   +   @ [ + #   _ @ _ ",
"@ _ # 1 0 a @ b _ ( 3 7 c d ! ~ e ! { , ( ! ! 3 ( ! ( f 8 g ( ; . . +   _ + + _ @ . _ _ + @ 0 + |   + + _ @ +   + [ @ @   _ . _ ",
": 2 _ h i : < $ _ ( ) 7 j f 6 ~ , ~ , ; ] 3 ] 6 k c l , - ( m / @ + # . _ _ _ _   # _   +   < : n :   _ _ @ _ _ . n @ + # @ + _ ",
"o _ 0 p q b } + . ] ! 3 r s k ! , ( ~ ] ] ' / t / u v w - x 3 s q y _ + _   _ +   . _ _ _   z | A     _ _ @ _ _ @ [ @ } h p   + ",
"_   : B o # + @ _ ~ ~ ( - C D ' 6 9 / E E k ( w w - ) r 7 F ( m A G + . _   _ + @ _ _ +     + H G # _ _ + @ _   . B [ @ @   . + ",
"p . I @ # _ @ .   ~ ~ ' { k / 9 J J l g ~ 7 u ) , ) 6 ; 5 , D C : + # . _ _ _ _ _ _ _ + @ h 1 K   o   _ .   _   @ [ K a [ : # + ",
"0 | : _ +     +   ! ! ~ , ( k L k ( 5 ! ; ) ~ ; ~ ] ~ ) { M 4 k + + _ @   + . + . _ @ _   z   n   # : @ . _ +   N [ | p H A : _ ",
"B y + + _ . .     ! ] ; , ~ m 4 ! r ~ ; ~ , , ~ , ] , ~ ( c D ~   . 1 | q : #       + _ [ : [ [ : # 1 # @ _ z _ B O +   : h P B ",
"p   . _   _ _ @ @ , ] - ( l , / 8 ( , ! ~ ] ~ ~ ; ~ 6 ] m 9 / ! ] ' 9 E 4 > t L J l m ( ] m E J K Q [ @ . _ 1 K K | . @ # R @ I ",
"+ _ _ _ _ _ _   + ] ' 8 E ; - ; 8 6 ) ~ ] ] ~ ; ] ) , ~ l g C D 8 f J > > c 9 ] ] = 5 - F D ; w $ p B S K Q [ N S @ + + _ + 0 : ",
"_ @   + + _   _ @ , ( t ( T v ! E / ] ( ] ~ ) , ~ e ) / 8 / 8 k s J / ( 3 U 7 F - V v 7 , W ; F X z . Y K O H H [ # :   + p h # ",
"+ _ _ + _ @ @   _ ] l ( Z u r w D l ) ~ ] ' ; ; v ] ~ J / t j ' ] ! u = Z Z v v 7 U - Z ; g ; ! . . ` . _ q I S & @ # _ + _ _ : ",
"_ _ _     _ + .   c t ( ! e ! F ( c k k ; ! 3 ) l m / k ) 3 5  .- - v = = v w 5 ! ( Z 7 m ] ~ ( @ : +   `   _ @ Y B A G . #   + ",
"  _   @ _ # + @ B > ; ] , = ] w w s > ..C > s W 8 ~ / ; = = , , 6 , 7  . .= U ~ ~ , - ' E ( , ) . .   @ R . b b } n S q @     _ ",
"  + +   + . 1 q H ~ 3 ( ) , ! - = 8 , ~ 3 ( 3 v - +./ / ~ ~ ; ; ! ! ) 3 ! ; ; ! ( ) r d m , , ' : # _ + @.@ z * ` R $   I H 1 o ",
"q @ . + + $ H B   . _ @ : : # b * Y . b z z b * b % * B B _ + _   _ } $ _ @ + @   b + H + + _ # + + _   R   * +   h z < %   n K ",
"K I Q B G + Q A @ _     + + o %   H : o   _ o ` < z R B B + +   +   # o @   # _ . 2 n B   : @ _ _ _   . ` : $   + + + _ _ _ _ _ ",
"$ _ q O N #.I p _ +     . _   # } $.@ + :     _ R b R B [ + +   . @   +   _ .   b _ S   . _ . .   + @ } h : #   _   @ : @ + o 2 ",
"@ + $ $ z q @ o _ +     +   @ . z [ + # _ # + : 2 0 z [ [ + + _ +     . . +   @ * q O o     _   _ + @ * _ @ _ +   _ + . . _ @ : ",
"h @   _ o P : : @ _     + + # ` @ N _ . 1 @ + #   # z n n _ + _ _ _ _ . . _   . % N [ # @ +     _ +   < p _   . + _ _ _   _ _ _ ",
"+ 1 @ . 1 | # #   + _   _ _ . ` o & @ .   _ _   : + b [ [ _ _ _ _ +     _   + ` # H y + + # + +   _   * %._   + _ _   @   _ + . ",
"+ _ + # Y | @ _ _ +     + @ : . * $.p . # o   1 _ _ 2 I Q   + _ _ + @ @ +   + b A &.a :     @   _   + ` | _ _ _     _ + + _   @ ",
". @ : o [ _ . @   _   + h . @ _ + #.%.  @   _ h + : _ O &   + _   + @   # _ @ } P N [ _ #   + + + _ # } n _ +       _ _ _ _     ",
"_ _ . : N _   _ _ + . + _ _ + + ` O Y . _ _ + +   z 1 H [ _ + _ + @   . _   _   K n B [ B   +   @ h G o H _   _ + . + @ @ _ +   ",
"    + i H | 1 +   @ @ _ _   _ +   I %.o @     : _ . q N *..   G @ _ +   @ + @ A P B N N H A : } ~ ) ' 3 E ] , , ~ ~ ~ ~ ] ~ ! , ",
"o .   i | n _ . # _ _ # o _ @ @ 2 S K 1 # _ : #   y [ P q p + h z o _ 1 n $.%.h * z 2 @ $.H $.=.! ~ ] ] > k ' ; ~ ] ~ ) ) ] ; ~ ",
"_ : B & K S y . @ @ @ : @ + . . [ Y I O $.p . @ + %.n [ Y A : _   p q I [ o @.z * * R * + n S H ( ( u , L f d g M f / 6 , ~ ] , ",
"K n N P B P *.: _ h o @ : + . @ N _ % @ [ q @ # . A B n [ | [ S | & [ . % ` b *   :   0 @.b p $.m 9 ( 6 9 D / E l c C l k l f L ",
"h z   @ o @ Q H n G . # # . p | q p 2 -.} [ I P p | B [ Y [ [ K n   b $ + . # : . + . _ % R b . 8 M E s l m m L e k 8 ^ ] ] ] , ",
"R < _ Y # ` _ 1 S & [ =.@ 1 *.B   . # b R ` @ K A P P n | a G : 0 @ : . .   _ + @ _ o 1 _ + % % - v ; m ) = = - F v w -  .- v - ",
"@ b R B _ + @ # * : | | A n [ | + _   } 2 h < b [ S S A @   _ + _   _ _ @ + .   + @ + 1 # _ # @ ! v ] 8 ( ! ( , ; ] , u U ! ] ; ",
"# $ } n [ _ _ o + 0 R b @ K [ | _ . _   + @   b p A I @ _ _ + @ + _     _ + + + _ _ . + @ _ + 1 z . K p h     + _ _ _ _ _ _ _ _ ",
": # z : $.  : G + 1 + b R p [ Y   1 : 2 _ . * _ $.% y K $.@ . + _       _ _     + : @ + + . . @ _ B q _   @ o : _ _ _ _ _ _ _ _ ",
"  # h R H K   0 _ : + h } @ N [ # o @ o p 1 * : 1 ;.z G N n 1       _ _ _ _     o     +     _ @ B N   +   @ o @ _ _ _ _ _ _ _ _ ",
"+ @ h % K O | 1 + . . 1 _ . &.n p . p . * $   q * $ R >.1 N I | _ + + + + + + .     + +   _ # _ H *.#   #   @ + _ _ _ _ _ _ _ _ ",
"# _ < .   % n N n 1 0 . . _ O : @   #     p q : b < b ` < 1 & P ! ! ~ ] ( ( ] ~ ~ ! , ~ ] ! ' 8 I .   # _ @ . _ _ _ _ _ _ _ _ _ ",
"_ ` : _ ;.@.* @ q a : 1 o   N . _ n @ *.S | @ < < b 0   z * 1 B J J C C c f D m ; ' ( ] , 3 6 L G . @ z : _ *   _ _ _ _ _ _ _ _ ",
"_ 0 N + $ y R < $ p q I   . P n | &.| G @ * R ` z 1 + 1 o ` # | = { ) e / E > s t J c D D l / l #   + % + . % _ _ _ _ _ _ _ _ _ ",
"z +   $ _ # n @ + * z P B q Y n [ _ $ b R b 0 0   _ o 1 R *   : = v - v = w v Z 7 , ! ; / C 8 ] + : + @ $ + 1 _ _ _ _ _ _ _ _ _ ",
"_ + . + + _ _ + . 2 z } < Y [ + _ h o         _ _   _ _ . b   o ~ ~ ~ ~ ! 3 { = = v = =  .v 6 c   @ @ + . _ @ _   2 # @ _ # : o ",
"| %.1 _ _   _ + @ o } . b * N _ : _ _ + # .     : # o 1 . ;.p P ] ] ] ] ; ] ! ) , ~ ( ] 7  ., l P +   + _   @   +   # @ # @ z * ",
"| =.  + _ @   + @ + + @ o ,.[ [ # . _   _ + + + + _ _   # % n S ~ ! ! ~ ] ] ] ] ( , ! ; ) v 7 ~ '._ + + _ + _ _ . @ _ _ _ _ *   ",
"@ + # . _ @   + +   : _   } * K 1 @ _   : _ . _ . :   +   _ Y | ! ! , , ! ! ~ ~ ~ 5 5 ! ! 7  .v N q @ 1 _ + _ + _ . : # @ b @ & ",
"+ + _     _ + . _ . @ . + 1 ).G & | @ .   + . 1 @ _ o _ 1 + n q _       _ _ _ +   . _ 1 + b < b : &.a A @   @ _ _ _ @ + h ` | Y ",
"_     _ + + _     } +   + _ z @.B B y +   _ . : . @ + # + + Q Y + _   @   _ _ _ 1 _ _ @ _ 2 % b R K P B   _ @ _ o p . 1 $ q n   ",
"_ + + + + _     _ 0 .   _ # 1 * 0 n n   +   . + o : : _   @ $.[ . + _ _ _ + + _ @ . h #     o ` ;.1 N [   #   + . @ . @ h !.p # ",
"  _ + _ @ @ _ . .   _ . . _ _ + @.P N _ 0 _ _ + @ # + A n _ a q _       _ + _   . @ 1   + _ _ + $ < H n @ . @ _ p h   2 _ K % @ ",
"@   + # _ : @ + _ . .     . . _ v U C ; 3 e ) ; ~ ( k C ! +.! D     + _ :   . + . . + _ _   _ _ @ @.B [ _ h   @   _ +   # S _ @ ",
"+ _     _ _ # 2 _ _ _ @ @ _ _ _ 7 r > ! ! ; ! U 8 c D u ~.= / E p   . _       @ _ @ : @ + . +     _ : [ `     # . @ . + : !.. # ",
"+ + + _ + + _   + _ _ + + _ _ + ) = c 8 ( ) {.4 > ; w v F F ] W *.  . _ + . _ _ h . _   _ + _ _ o _ } & i + + _ + 1 # . : K . : ",
"1 @     _ . +   _   _ # # _   _ ) ; C f ; t f C ] F  .w 7  .7 f [ p +   _ _ _ . 1 _ # # + @ @   1   1 & &.+   : _   + @ + n # @ ",
"# o .   @   _   _     _ _     _ ( ! / c 8 4 e - - 7 ; 3 v - { m C k ( ~ ] ] ; ] ~ ] ; ( ; ~ ) u | q | [ B [ : . . . @ 1 # B p } ",
"@ :   . o . _   . . +     + . . ~ v / E l U - v ] ) ; ; U w w ! s E j , , ! , ; , ~ ] ~ ~ {.D > 1 : _ q # '._ . _ _ _ . _ &.&   ",
"[ Q Y =.+ . _ _ 1 + # _ _ # + 1 , ; E ~ U - ! ; ] ; ~ , ) ; , ~.m C m ] ( ( ( g L c > E k ] 5 v * R + 1 * I i @ @   o : q H Y [ ",
"  [ H & B B B n q 1 + _ _ + 1 q &.A 1 b 2 @ @ _ # + . 1 _ + : < u D l ^ k 8 8 4 C m ; 5 = v v - R ` K @.]._ K + _ _ # B #.a 0 n ",
"* b   [ N H I q Y H A @ N H O | _ _ _ _ _ _ _ _   _ _ _   @   + w ^.m C D C C ( ! 5 v Z v 7 U ~ z z A % R b N S _   q O [ $ @./.",
"+ % @.z _ n N & I H [ K O $.@ . _ _ _ _ _ _ _ _ _ _ _ _ _ _ _ _ w ) (.D U - v  .- v { ) ~ ] ; ( R   + R # % @ H P & &.n + # 0 z ",
"@ @ + $ R b o   B Y | | p _ % _ _ _ _ _ _ _ _ _ + _     _ + _   ] 8 l - r ) { , , ! ~ ; ] ! , , b | 0 } : o ` A N H S _ z @ _   ",
".     _   o R _.R : H %.+ o . : _ _ _ _ _ _ _ _ _ _ _ @   _ _   ( > ! = , ' , , ; ] ~ ! , , ~ ( h | # : +   # % q n p h 0 @ +   ",
"_   # . p @ ` < X h &.q _ _ : + _ _ _ _ _ _ _ _   + +     + . + [ @ * : # . @ 0 # + _           . p o : . _ 1 @.p [ o   @ + + + ",
"_ 1   + + ` @.b     q Q + _ _   _ _ _ _ _ _ _ _ @ _ + _ _ . + @ n % . # @ @ @ _ @ @ @   _ _ # h + _ 0 . : + : . # K _ :   . @ @ ",
"+ . 0 # p h R $ | h   #.| _ +   _ _ _ _ _ _ _ _   _ _ _ + + G | ` + |   1 o b # _ _ . # _ @   . _ _ o . + _ _ : 2 N   _ . _ # 1 ",
"_ 1   + . z $ q 1 ,.R [ q * +   _ _ _ _ _ _ _ _ + +     _ @ | O _ o * : + . : _ + _ + _ @ @ o ` + + 1 @ z _ + $ + Y . +   @ * + "};
