/* XPM */
static char * champi_xpm[] = {
"64 64 257 2",
"  	c None",
". 	c #000000",
"+ 	c #0C0200",
"@ 	c #0E0903",
"# 	c #120300",
"$ 	c #130A02",
"% 	c #120C0A",
"& 	c #180500",
"* 	c #1B0A00",
"= 	c #16110C",
"- 	c #1C1003",
"; 	c #1C120B",
"> 	c #1A1713",
", 	c #200D02",
"' 	c #231204",
") 	c #22140B",
"! 	c #261A0D",
"~ 	c #2A1404",
"{ 	c #2A1A0C",
"] 	c #251C14",
"^ 	c #2B231C",
"/ 	c #35210C",
"( 	c #382101",
"_ 	c #3B200D",
": 	c #322313",
"< 	c #33241A",
"[ 	c #372815",
"} 	c #36291C",
"| 	c #3E2A12",
"1 	c #3B2C1B",
"2 	c #2B2723",
"3 	c #362C25",
"4 	c #3A312A",
"5 	c #3B3531",
"6 	c #422807",
"7 	c #422D10",
"8 	c #44331E",
"9 	c #433223",
"0 	c #42352C",
"a 	c #45392D",
"b 	c #4B3524",
"c 	c #48362C",
"d 	c #4D3925",
"e 	c #493D2F",
"f 	c #433A33",
"g 	c #543E33",
"h 	c #50401C",
"i 	c #4C4139",
"j 	c #53402B",
"k 	c #534232",
"l 	c #54463D",
"m 	c #5A4333",
"n 	c #5E4A32",
"o 	c #664D2F",
"p 	c #644C38",
"q 	c #6B543C",
"r 	c #74563E",
"s 	c #71583D",
"t 	c #7A603F",
"u 	c #4E4B46",
"v 	c #544941",
"w 	c #5F5347",
"x 	c #614F43",
"y 	c #6A5745",
"z 	c #6A5C53",
"A 	c #745B45",
"B 	c #785D52",
"C 	c #6F6458",
"D 	c #79624D",
"E 	c #766455",
"F 	c #7E6B59",
"G 	c #7F6A65",
"H 	c #7F7868",
"I 	c #86694B",
"J 	c #806554",
"K 	c #846B53",
"L 	c #846D5A",
"M 	c #8C6E56",
"N 	c #8F6F58",
"O 	c #8B7158",
"P 	c #966E4C",
"Q 	c #936E52",
"R 	c #9F734C",
"S 	c #977759",
"T 	c #867466",
"U 	c #85796D",
"V 	c #8A7462",
"W 	c #8E7861",
"X 	c #8C7B6E",
"Y 	c #8B7C75",
"Z 	c #927661",
"` 	c #937A64",
" .	c #927C68",
"..	c #9A7C64",
"+.	c #927F70",
"@.	c #A1744A",
"#.	c #A07552",
"$.	c #A67A52",
"%.	c #A37C5A",
"&.	c #A97B54",
"*.	c #AB7D5A",
"=.	c #8E8276",
"-.	c #9D8064",
";.	c #9C8169",
">.	c #958171",
",.	c #93887B",
"'.	c #9A897A",
").	c #A4825D",
"!.	c #AC825C",
"~.	c #B2845B",
"{.	c #A48363",
"].	c #A2836A",
"^.	c #A78C6B",
"/.	c #AA8360",
"(.	c #A9866A",
"_.	c #AC8964",
":.	c #AC8B6A",
"<.	c #A18470",
"[.	c #A48A75",
"}.	c #A38E7D",
"|.	c #A98672",
"1.	c #AB8C72",
"2.	c #AB8D7C",
"3.	c #AE906E",
"4.	c #A6907B",
"5.	c #AE9073",
"6.	c #AE9378",
"7.	c #B18562",
"8.	c #B58A64",
"9.	c #B28D6A",
"0.	c #BB8D65",
"a.	c #BA8F6C",
"b.	c #B38E73",
"c.	c #B5906B",
"d.	c #BC9063",
"e.	c #BC9269",
"f.	c #BD9B6D",
"g.	c #B29275",
"h.	c #B2937C",
"i.	c #B19A71",
"j.	c #BA9275",
"k.	c #BA967E",
"l.	c #C18755",
"m.	c #C8915B",
"n.	c #C59566",
"o.	c #C19671",
"p.	c #C29B7E",
"q.	c #CA9A73",
"r.	c #CB9D7B",
"s.	c #CEA065",
"t.	c #CBA27A",
"u.	c #D8A46A",
"v.	c #D2A173",
"w.	c #D3A47B",
"x.	c #D5A879",
"y.	c #DDA273",
"z.	c #DDA678",
"A.	c #DDAB74",
"B.	c #DDAA7C",
"C.	c #E1A376",
"D.	c #E4A47E",
"E.	c #E3AD74",
"F.	c #E4AA7C",
"G.	c #E8B57B",
"H.	c #F1BB7C",
"I.	c #EFC27F",
"J.	c #9B9388",
"K.	c #AA9789",
"L.	c #B59C88",
"M.	c #BC9C85",
"N.	c #BB9F8A",
"O.	c #BBA18A",
"P.	c #BEAB9D",
"Q.	c #C09A85",
"R.	c #C7A484",
"S.	c #C3A488",
"T.	c #C3AC8A",
"U.	c #CBA583",
"V.	c #C8AE9F",
"W.	c #C7B19C",
"X.	c #D1A381",
"Y.	c #D4AA8B",
"Z.	c #DCAB82",
"`.	c #D9AD8B",
" +	c #D0AC93",
".+	c #D8B187",
"++	c #D7B790",
"@+	c #D9B698",
"#+	c #DAB89D",
"$+	c #C9B5AA",
"%+	c #D3B6A6",
"&+	c #DABAA1",
"*+	c #D9BEAB",
"=+	c #E5AF8B",
"-+	c #E2B284",
";+	c #E1B48B",
">+	c #E5B88D",
",+	c #EBB583",
"'+	c #E9B68B",
")+	c #ECBA8B",
"!+	c #E4B692",
"~+	c #EBB790",
"{+	c #EABB91",
"]+	c #F1AC83",
"^+	c #F4B685",
"/+	c #F3B58C",
"(+	c #F1BB83",
"_+	c #F1BC8C",
":+	c #F9BE86",
"<+	c #F6BB95",
"[+	c #FDBC94",
"}+	c #DAC397",
"|+	c #D9C3B6",
"1+	c #E6C592",
"2+	c #E5C499",
"3+	c #ECC295",
"4+	c #ECC39B",
"5+	c #EED09A",
"6+	c #F9C589",
"7+	c #F4C394",
"8+	c #F6C59A",
"9+	c #F1CA91",
"0+	c #F4CB9C",
"a+	c #F9C694",
"b+	c #FDC29A",
"c+	c #FECB93",
"d+	c #FCCA9C",
"e+	c #FDD296",
"f+	c #E1C3A1",
"g+	c #EEC6A3",
"h+	c #E8C2AB",
"i+	c #E4C4B7",
"j+	c #E4CCB0",
"k+	c #E6CBB8",
"l+	c #EED4B3",
"m+	c #F4C6A4",
"n+	c #F4C7A8",
"o+	c #F2CBA2",
"p+	c #F4CBA9",
"q+	c #FDCDA1",
"r+	c #FDD3A5",
"s+	c #FBD6B4",
"t+	c #FDDDB2",
"u+	c #FCDCB9",
"v+	c #FFE7B7",
"w+	c #E7D1C3",
"x+	c #F8DCC7",
"y+	c #FEE7C5",
"z+	c #FFFFFF",
"A+	c #000001",
"B+	c #000000",
"C+	c #000000",
"D+	c #18F7EC",
"E+	c #030C4A",
"F+	c #18FAA4",
"G+	c #000000",
"H+	c #000000",
"                                                                                                                                ",
"                                                                                                                                ",
"                                                                                                                                ",
"                                                                                                                                ",
"                                                                                                                                ",
"                                                                                                                                ",
"                                                                                                                                ",
"                                                                                                                                ",
"                                                # + # # # +                                                                     ",
"                                              # < P.|+w+K.' #                                                                   ",
"                                            ; l $+V.*+N.x+k+~ #                                                                 ",
"                                            . Y >.2.M.#+ +h+&+_ *                                                               ",
"                                            . z >.1.g.U.`.g+t+S.* +                                                             ",
"                                            . -  .1.%.!.;+{+>+s+m &                                                             ",
"                                              . b -.c.$.v.8+{+o+%+G *                                                           ",
"                                              . & K :.e.>+d+a+m+h+i+~ &                                                         ",
"                                                + e {.:.o.b+d+z.=+n+ +~ )                                                       ",
"                                                . ' ` b.%.q.,+F.[+<+n+s # @                                                     ",
"                                                  + V 1./.o.'+7+b+b+n+@+j ' .                                                   ",
"                                                  # F ].9.e.z.q+[+[+~+4+f+7 1 .                                                 ",
"                                                  + z ` 1.%.e.r+q+/+)+d+4+++( 8 +                                               ",
"                                                  + z ` ].%.8.;+F.F.,+7+d+0+.+6 / +                                             ",
"                                                  $ E -.-./.$.n.B.,+6+c+c+c+9+g+t ~ {                                           ",
"                                                $ - F -.).8.$.x.,+6+6+c+6+c+9+0+2+3.* - ;                                       ",
"                                                + z W .._.w..+G.G.G.A.G.:+6+6+d+9+t+}+h # $ $                                   ",
"                                              # 1 O ].).c.x.x.s.s.s.A.(+c+c+6+e+e+9+5+v+T.| , +                                 ",
"                                          + # 9 L ].{.).!.d.n.s.A.G.:+c+c+6+6+6+6+e+9+5+v+l+O.* $                               ",
"                                      . + $ E V ..:.9.e.f.v.-+d+6+e+c+9+(+6+6+e+e+6+e+9+0+u+u+W.. .                             ",
"                                    . . 9 >.` O ..j.`.;+;+{+{+)+,+(+G.E.G.6+c+e+6+I.e+e+9+o+p+j+J..                             ",
"                                  . . l T L N {.#.!.o.o.n.n.0.0.D.C.u.G.6+e+6+e+6+e+6+d+)+x.o+y+,..                             ",
"                                . . U T }.<...P #.P &.&.~.7.a.w.D.]+^+6+e+6+I.I.H.H.C.E.-+9+1+i.H .                             ",
"                                . w '.}.1.]./.#.&.*.0.*.7.7.0.q.D.[+d+c+6+I.H.I.u.l.y.F.3+r+f.O a .                             ",
"                                . z '. .h.(.a./.7.a.8.7.!.8.q.-+b+d+r+d+6+G.s.s.m.u._+r+r+U.S n . .                             ",
"                                . 4 '.4.k.b.j.7.*.*.7.r.8+d+r+r+d+a+)+A.q.m.n.m.a+a+t+o+R.].j . .                               ",
"                                . ; X K.|.j.Y.X.w.r.Z.b+r+c+6+6+H.G.y.n.n.B.3+q+4+`.:...V k ; .                                 ",
"                                  . 3 T 2.Q.Y.`.!+{+d+r+a+G.H.:+G.(+_+7+0+4+t.../.I ;.A < = .                                   ",
"                                  % + < B <.(.p.r.r.w.-+,+:+c+6+a+b+;+n./...#.M o y 9 $ % .                                     ",
"                                    % ; , x Z h.k.k.o.o.d.n.n.l.@.R P P S O E q k ! ^ %                                         ",
"                                        # + { m y J ....S Q Q I #.M M K y j : - $ $                                             ",
"                                            2 * # : g y p r r q o d / ' # + $ ; %                                               ",
"                                              . + + # ; & ~ & , & # ~ 9 z x ] @ .                                               ",
"                                                . & { v x z x y y q z q C U C % .                                               ",
"                                                + ; & l p B y o q A A O T >.=.= @                                               ",
"                                                . { : y y o r s I -.M -. . .+.] @                                               ",
"                                                . * 9 q o o I -.S {.%...].^.4.w @                                               ",
"                                                . * p s s I S I ..%.].3.1.6.4.z +                                               ",
"                                                . ) z q q O ` S {.3.c.].].h.[.q +                                               ",
"                                                . $ k q A Z M S 5.3.3.3.g.5.;.L #                                               ",
"                                                i ' d y A O S ].3.3._._.:.^. .W $ -                                             ",
"                                            = ^ < $ k q q O S %._.c.).5.^.S ;.E ' - $                                           ",
"                                          > 2 f 3 - [ y A I S S ..P :.].M W O T # 1 2 ]                                         ",
"                                          4 5 f e } * 8 y A S M P {.I M -. .W 9 ' 0 4 2 @                                       ",
"                                          5 5 5 4 a ! * / o L L M S ;.O W O 1 # < 3 v 4 >                                       ",
"                                          5 5 5 3 f 9 { * / y D W ;.` L. .{ ' 1 3 u ] 5 %                                       ",
"                                          > 2 5 5 e 4 e : ' 9 d o p e ~ ' { < 0 4 3 5 @                                         ",
"                                            > 4 f 4 4 9 a 9 ) * # , , 9 c 1 0 f f 5 @                                           ",
"                                                u 5 3 3 e 3 a e 0 3 9 0 0 f f 4 3 %                                             ",
"                                                  2 5 5 4 4 f 3 3 f i 0 2 3 f 5 >                                               ",
"                                                      2 2 ] = ] 4 4 f 5 f f 4                                                   ",
"                                                                                                                                ",
"                                                                                                                                ",
"                                                                                                                                ",
"                                                                                                                                ",
"                                                                                                                                "};
