/* XPM */
static char * cookies_xpm[] = {
"64 64 25 1",
" 	c None",
".	c #20140D",
"+	c #5A3019",
"@	c #9E770E",
"#	c #C69510",
"$	c #7C4915",
"%	c #976837",
"&	c #190F0A",
"*	c #7F6110",
"=	c #C59410",
"-	c #96710C",
";	c #180F0A",
">	c #9D770E",
",	c #351C0F",
"'	c #745809",
")	c #492B0C",
"!	c #5D4608",
"~	c #5E3710",
"{	c #60490C",
"]	c #4B3909",
"^	c #0E0906",
"/	c #0B0704",
"(	c #785A0B",
"_	c #130C08",
":	c #090503",
"                                                                ",
"                                                                ",
"                                                                ",
"                                                                ",
"                                                                ",
"                                                                ",
"                                                                ",
"                                                                ",
"                                                                ",
"                                                                ",
"                                                                ",
"                                                                ",
"                                                                ",
"                                                                ",
"                                                                ",
"                                                                ",
"                                                                ",
"                                                                ",
"                                                                ",
"                                                                ",
"                                                                ",
"                                                                ",
"                                                                ",
"                                                                ",
"                                                                ",
"                                                                ",
"                                                                ",
"                                                                ",
"                                                                ",
"                                                                ",
"                       .+++++.                                  ",
"                    .++@#######+.                               ",
"                   .+@##########+.         .+++++.              ",
"                  .+@###$%####%##+.     .++@#######+.           ",
"                  &*####++####+##=+.   .+@##########+.          ",
"                  &@$$########==-+++++;+>###$%####%##+.         ",
"                 .+@#######++-++@#######+-##++####+###+.        ",
"             .+++,+####%####-+@##########+-###########+&        ",
"          .++@##='+@###$$##-+@###$%####%##+-###++######&        ",
"         .+@####='+@######='*####++####+###+-#######+$#&        ",
"        .+@###$%=''*######='@$$############+)=#######+#+.       ",
"        &*####++#-'*######-+@#######++######'=###$#####+&       ",
"        &@$$#####='+@+$##$'+####%########+$#'=######@##&&       ",
"       .+@#######+,'*@###=,+@###$$########+#+-#########&.       ",
"       &+####%####-'+*@@#='+@###=====#$#####+)=####$##+&        ",
"       &+@###$$###=''+**@>!'*==-+++++-==#@##''+######@&&        ",
"       &+@#########~'''++*{]{++@#######+-###'-######@+&.        ",
"       &&*##########-'!''^^/+@##########+-#+!>@###@@+&&         ",
"       .&*###########=-''^^+@###$%####%##+(,,*****+&&&.         ",
"        &+@+$##$#####$#=+;&*####++####+###+/_&&&&&&&&.          ",
"        &&*@####+######@&&&@$$############+:;&&&&&&.            ",
"        .&+*@@########@+&;+@#######++######_                    ",
"         &&+**@@@###@@+&&&+####%########+$#&                    ",
"         .&&&++*****+&&&.&+@###$$########+#+.                   ",
"          .&&&&&&&&&&&&. &+@#########$#####+&                   ",
"            .&&&&&&&&.   &&*############@##&&                   ",
"                         .&*###############&.                   ",
"                          &+@+$##$#####$##+&                    ",
"                          &&*@####+######@&&                    ",
"                          .&+*@@########@+&.                    ",
"                           &&+**@@@###@@+&&                     ",
"                           .&&&++*****+&&&.                     ",
"                            .&&&&&&&&&&&&.                      ",
"                              .&&&&&&&&.                        "};
