/* XPM */
static char * grock_xpm[] = {
"64 64 84 1",
" 	c #797979",
".	c #767676",
"+	c #7B7B7B",
"@	c #747474",
"#	c #757575",
"$	c #535353",
"%	c #8F8F8F",
"&	c #888888",
"*	c #919191",
"=	c #777777",
"-	c #565656",
";	c #787878",
">	c #737373",
",	c #7C7C7C",
"'	c #707070",
")	c #656565",
"!	c #4A4A4A",
"~	c #7A7A7A",
"{	c #8A8A8A",
"]	c #5B5B5B",
"^	c #676767",
"/	c #6E6E6E",
"(	c #7D7D7D",
"_	c #808080",
":	c #878787",
"<	c #575757",
"[	c #858585",
"}	c #848484",
"|	c #525252",
"1	c #6B6B6B",
"2	c #727272",
"3	c #626262",
"4	c #6A6A6A",
"5	c #4B4B4B",
"6	c #6D6D6D",
"7	c #5A5A5A",
"8	c #5C5C5C",
"9	c #717171",
"0	c #8E8E8E",
"a	c #838383",
"b	c #585858",
"c	c #5E5E5E",
"d	c #545454",
"e	c #555555",
"f	c #696969",
"g	c #595959",
"h	c #7E7E7E",
"i	c #6C6C6C",
"j	c #666666",
"k	c #909090",
"l	c #868686",
"m	c #646464",
"n	c #5F5F5F",
"o	c #4F4F4F",
"p	c #606060",
"q	c #4D4D4D",
"r	c #686868",
"s	c #818181",
"t	c #898989",
"u	c #616161",
"v	c #636363",
"w	c #828282",
"x	c #949494",
"y	c #5D5D5D",
"z	c #6F6F6F",
"A	c #4C4C4C",
"B	c #7F7F7F",
"C	c #4E4E4E",
"D	c #515151",
"E	c #505050",
"F	c #939393",
"G	c #929292",
"H	c #8D8D8D",
"I	c #8C8C8C",
"J	c #474747",
"K	c #8B8B8B",
"L	c #959595",
"M	c #989898",
"N	c #969696",
"O	c #979797",
"P	c #454545",
"Q	c #484848",
"R	c #494949",
"S	c #999999",
" .+@#+.$%&*=-@#  ;>+=+#=,# ',)!~=@@  ##;>~@;+~'{].#>+=@; ^@/(@.>",
"#~#_>:<([,},|1=##~ ;2##;3;,#456.+;=;;.#.@+. +;=[7.;#+;.=~8 =(+;#",
"@@(9})90+>;abc;#~++#;  2~=^d)ef>.==#.;;.@~#. 2+=g=~.~ =#;$( '#;h",
" #(.ijkl;@.l4|@ =>#/=>;@mdn~kfo4f9#@@ ~=. @@;',)8=~.;;;@h-i2.~;@",
"h>h#p}&(=  _(qr+~1rr@f3bc s0t*;!u/=.# ~. ~#.+@+g3= ##. >.v^#h==@",
";#2^_+,2#;~;ae82@1mgdeiwxt (lkrb^>~ .=.>;=@=~;@$1;=### @#4y4@9+ ",
".#7 a9=9=#~#,jdvgd$j,{w;9>+z{;Ac>=~;.##>#.@;= f$# .;=.~#,nog).(2",
"[cm&@.+=+>~;@.$<$f.(> #.;~#@:|jr ;.##.##= ;+.+m-~~#~~.~.vdr4-j#;",
"qf;= =#~# ..24|<>;#~;= ;#B2~r$n.=~.1)4@~B'/)))Cbr=2~ 2(4-3+w f]y",
"^.~.;;.~+>=(4bh|6; ;;=.>~  ~Dc)@9fu3r4m8bb7f;y|||pv@ #2]A1s. &.]",
" +=@==#=@#22E,F3]9+@#== .9 j5^3r/^c<egv1_{_Gky2~~4$gm6)-jj9@@= [",
";=@#;=#.@ 4d6Hx,|fB..@> . +7r18yod]j.lkFIF[F#|;l[H gA8]|jr#~,,@#",
"#@=~ ;;;.=EjH t0dg@2,~#;((m5]|b]j(kkttI%:llx^4~=(@+th-Jyc4~.@ .#",
"## ~..=>^c<B+=+0@<f^##/ienqf6 *GFk{&0*: ((H:g#.99@;,0=/rb$m;h.z~",
"=. ;>.#47E(9@=+{h5]|e|Eob4<h_:l=}}:Kl,.#>~k4<#~h;+~>:4w%h4]dm; =",
";.  .+=mg'. ;=.k}e#>>@h[FL87#,;>#@,&a@9,([x]f;#>#~+#%)B[%*&^$84;",
"j@(#~:)ef9+ .@ *B|#(a[{G[[&849,>.@~a.; ~.G#-#~=#>(;;:4 .}hs&(v$d",
"g<]3ff]y@=+==##&ad>= ..+x**jr;( ~;+w#.##.[8y>@(#@ .+,j==+~@9(&,j",
"h.1)b5u~~==#  =[l<@.=##~x0x4u~;; ==h@.@#:@e12. .#==l@j..2;+;#;ha",
"6([l27/2 ..@~+ :}<.;~~(wa(%)p ## =@~@.@=Fnm#>(9 ;.+G9i;@B#@, z'(",
">~2.4jh=~  .;=.l(d.;;..~~@Hcj; ;++@ @=@~aEf..~#+~# G6>~@~=@@~h~2",
",(2h^) @=;~= =#l |=++=>> .:-r. ~;~@ =~;w1-)#~9h  #@[j#+.'+h.>;+ ",
"# @s]m.+.#;=+ .a~D2.~+;=#++|^#. > @  +;}uv)9=>+.==@+m.~.~=#=;=##",
";,2+$i;=~===,~>,+A^f9=;;'_@df~# @,.~=.9(cm^4zh' .+;;^=;@#... + @",
"#=hzym~>+2 =. @~#|i@@. @~ f5r 9=;~~=.;;=dcr^j9~.#,' u#;~.;  ;=..",
"#>&)83 ;2= .~+#;~er#~ ==>~p8r#.+ >2;+#^8Dded]6.'@(,;<. r=..###..",
"+z[bn)@@=B.>=@@ >|84  # , Am^9=>. ,@n$v,Ft,fdDy^;>.#744.,~;;   ;",
">/.7j4#~>=>,,@+;17bgr.=+2r!rm4 +zi8|rIx}k:K%,37cr(wrb^g^mmj12=  ",
"du$e]8^2~  ,92(fD+:mD^. ~ye)^^^mn<vBKa[x[=+%L}^od^=v7^b]87-d|DEo",
"KFmfim7b4'~~'.@$j@[G(v7f;gm8n]b<).wB~+~#,@9#aG%(me]$En))^^^^r1z2",
":%^u (@>d81#,=3$9~;aIM.!$q4]g7r.~~=>2.  # +.>(l[Gx e^_[+{0GFk0kG",
";K+79#;la68g^7!^@=;:hw[:gC7<1;~9 ..~, .@~@.+=2@==k)!B+^;2+l&a,  ",
".#L^v=.;#aF~.|7m>=h#.>t%j^d4~=9#;.+ h= ==; 9~#;#a@o>@=,2########",
"+;L^D~=/ >(;I4836@#=;@K;|Nj!i,.+.# @ .,+ @,+>_9~sC);+9@+........",
"##H_v^h +9;':4d^2,#~.':r1aI/Cm>.>#~2#2.@ >=+z~#=jD,> .# ;;;;;;;;",
"~=@;|g-f .B@t9E^~('#~;(^a%tN>qg4r'~#;#;@ ~@+,#I2C;+9.,.#        ",
".~ki[&ud)r.>_4E./+B,.1cfxHIH%+!8i9 >=#+;.~@  6 $]['  =@         ",
"2a#80:*;]7)#}6qr(@rg<)1kHw~t:&@|-d<|g])frf@+>~)d@.;~..~;        ",
";IeK~+:}G+]<^i8^j<df *Ht,#;=}kfr:,#4^gg<dEc)nr<3~2h>@+,#        ",
"kf^}#@>,~G[4|Dq|8j~xstx[;.2;&%1m&_[{*:l[l @4mAer.~>>,;9~        ",
"/n=h2=;;.s*%[]e2&}.;=@(2=.(> krf .@# (w:&lkNKwye;9.=9;+2;#. 9B=>",
"or~+.;+@;=l,&B|=#2h . >~=2@~~}r3+=##..=~==@ IF,|8@=;2=+.;= =~z;G",
"e+;>;.~; > 'BG8p@2 2.,2 =,. #s/7~=.==.#.@,.2[%F^!=, @.==>(2(.9[f",
"@_29,.#+.=>.>l(A1+@.~=+2,;9~,(v^;== ~;=;.+,#@,k[Dr;9##>#@(>B2:zJ",
",9#;,+9=#+#+#;F4o6=(~#,@9==z~a]4 =.;;.##~2=;>&kOrDf)@.>.=@~@=(Pi",
" zh~>+.=;~;@,>[F7bi'2,... (2=(Ej;.#=;=.=+.+~.kK0l$cv.=@===;;(<7(",
"~ (=9.+  ;~> .>ks<gr9,=@:92(2)54=##;   ~.;~.2++;*1ef ;#;;(#a !s'",
"@~9;+@ ##=~+2,##GuD#~',>@, rD44g;..=;.##+~>@+',#:+51==.+=@;~id>~",
"#; ~+#>  ;.@>@#.a#|j@#.;;~b<2F^]# 9(>@;..+=+>~= >F8c~,##'h=.rd=;",
";=22;~~h=; ~~;.#I~Jj~,@=yd7,GKb8=+>.>>+ ;~@.'=@.#+3$=2#~++@;)E=+",
"=,~.=#>.==.##..==&$)'.j8$4:}{F1Af...=.;#. =, ,;=.=(8f^2,.>>+^D#=",
">;;#; =;~ ;;; ~+/t<]^rcEh{F}t*BAbi2=. @#~;##222#+2jQD4 9.~ ~4|i2",
"~~>9 , =>#;~~;.@h DyfE^&G&;h*H%7ou4='+#+@@;+,==;^47D7mB##~@.2dr_",
"42.;;>9...###...#wmRu~G[;B2>_wO.Cdr+#~2>;'6jvbbgvzm)6P1#@@2 #obz",
"|7mz>i1#  ;;;;; +)g^a{}#>##==9[*85j2#14vf8ggr6([SFf2t7f,, ,=jC$C",
"r<5dmm88)1@  >4v$8+0+>2, #+@;,=l#Ruyrbjyddr+x%0&sKc~0fDj@2 ^em+8",
"L*r]eE^f]g1jivq7 ~ .#=;.2 #~#',~:E<b-<77j(HkIa .l;-LtG<e#@ry<IFx",
">t*0B^gA8u3)db~  ~ ==;;=#~ @;+## Bqj.@kL%G{(=>2@K^^l2:.divcE:+}:",
",.=,Ixhr)d$7j,>~;  ;;  =~=+2~h/ >jmk0sh2,(.9.~~,kn( 6,0i|pD#w~iw",
"@ , @+{*k;Ar~@>.=;  ~~ ;(>; =@2( E(:#@=9'@#.,~@>9ew;B2 @DDia=9;=",
"~~z  .&_O'A1@.B@==; ~   ,@#h@2,zD.l(+9h;~(~.=@#~+^h' >+G4Q(=;#}6",
"#+'~@>x%j87<z}@@;==  ;; =;@~#;(7yI>9=>#+>==###+lju  @=@==<@;2_>=",
";, +.h%h]% dr4#+;=.;;== # =.;#47;@/ ~h# . ~ ;22+)4~+@+,;@c~>+>9(",
";.~@>&}^=%kdm,;. ..==.. #= @ 4df~#+;#z(@  .. =~}b1..,>> 9p =(9~#"};
