/* XPM */
static char * key_xpm[] = {
"64 64 190 2",
"  	c None",
". 	c #3A4C59",
"+ 	c #2E3D47",
"@ 	c #31404B",
"# 	c #425765",
"$ 	c #628297",
"% 	c #7195AE",
"& 	c #5D7B8F",
"* 	c #4C6474",
"= 	c #435867",
"- 	c #475E6D",
"; 	c #577285",
"> 	c #769BB5",
", 	c #9ACBEC",
"' 	c #BAE3FF",
") 	c #98C9EA",
"! 	c #87B2CF",
"~ 	c #80A9C5",
"{ 	c #86B1CE",
"] 	c #94C3E3",
"^ 	c #9CCDEF",
"/ 	c #A0D3F6",
"( 	c #B7E2FF",
"_ 	c #D2EDFF",
": 	c #E6F5FF",
"< 	c #ADDEFF",
"[ 	c #A5D9FD",
"} 	c #A7DCFF",
"| 	c #C8E9FF",
"1 	c #E7F5FF",
"2 	c #E2F3FF",
"3 	c #DCF1FF",
"4 	c #E4F4FF",
"5 	c #D7EFFF",
"6 	c #B2E0FF",
"7 	c #B0DFFF",
"8 	c #E0F2FF",
"9 	c #CAEAFF",
"0 	c #5B788C",
"a 	c #2C3A44",
"b 	c #2A3841",
"c 	c #405462",
"d 	c #96C6E6",
"e 	c #DDF1FF",
"f 	c #D9EFFF",
"g 	c #B5E1FF",
"h 	c #A5DAFE",
"i 	c #B1DFFF",
"j 	c #BCE4FF",
"k 	c #E1F3FF",
"l 	c #6C8FA6",
"m 	c #759AB3",
"n 	c #789FB9",
"o 	c #C1E6FF",
"p 	c #B8E2FF",
"q 	c #8BB8D6",
"r 	c #64849A",
"s 	c #AEDEFF",
"t 	c #465D6C",
"u 	c #607E93",
"v 	c #212120",
"w 	c #B4E1FF",
"x 	c #536D7F",
"y 	c #394B57",
"z 	c #8CB9D7",
"A 	c #91C0DF",
"B 	c #5F7D92",
"C 	c #394C58",
"D 	c #5E7C90",
"E 	c #3E525F",
"F 	c #30404A",
"G 	c #32424D",
"H 	c #33444F",
"I 	c #354651",
"J 	c #374854",
"K 	c #384A56",
"L 	c #3B4D5A",
"M 	c #567184",
"N 	c #7CA3BE",
"O 	c #C9E9FF",
"P 	c #E9F6FF",
"Q 	c #9BCCEE",
"R 	c #7CA4BF",
"S 	c #4F697A",
"T 	c #779DB7",
"U 	c #465C6B",
"V 	c #2B3942",
"W 	c #DFF2FF",
"X 	c #E5F4FF",
"Y 	c #557183",
"Z 	c #597588",
"` 	c #618095",
" .	c #6F92AA",
"..	c #7FA7C3",
"+.	c #8FBCDB",
"@.	c #A3D7FA",
"#.	c #A6DBFF",
"$.	c #A8DCFF",
"%.	c #A7DBFF",
"&.	c #C2E6FF",
"*.	c #D8EFFF",
"=.	c #E8F6FF",
"-.	c #66869C",
";.	c #2C3A43",
">.	c #628196",
",.	c #3B4E5B",
"'.	c #80A8C4",
").	c #79A0BA",
"!.	c #A4D8FC",
"~.	c #BEE5FF",
"{.	c #C4E7FF",
"].	c #A2D6F9",
"^.	c #9FD2F4",
"/.	c #A1D5F8",
"(.	c #A9DCFF",
"_.	c #ABDDFF",
":.	c #93C2E2",
"<.	c #374955",
"[.	c #7DA5C0",
"}.	c #485F6F",
"|.	c #92C1E1",
"1.	c #DBF1FF",
"2.	c #D1EDFF",
"3.	c #87B3D0",
"4.	c #3D515E",
"5.	c #2D3B45",
"6.	c #4E6778",
"7.	c #7195AD",
"8.	c #82ACC8",
"9.	c #759BB4",
"0.	c #445968",
"a.	c #536E80",
"b.	c #65859B",
"c.	c #98C8E9",
"d.	c #84AECB",
"e.	c #7397B0",
"f.	c #587487",
"g.	c #2E3C46",
"h.	c #68899F",
"i.	c #577386",
"j.	c #82ABC7",
"k.	c #7BA2BD",
"l.	c #83ADC9",
"m.	c #D5EEFF",
"n.	c #2F3E48",
"o.	c #485E6E",
"p.	c #D1ECFF",
"q.	c #CEEBFF",
"r.	c #CCEAFF",
"s.	c #3C4F5C",
"t.	c #698AA1",
"u.	c #D3EDFF",
"v.	c #CDEBFF",
"w.	c #6889A0",
"x.	c #4F6879",
"y.	c #5C7A8E",
"z.	c #BBE3FF",
"A.	c #DBF0FF",
"B.	c #99CAEB",
"C.	c #364753",
"D.	c #C7E8FF",
"E.	c #9CCEF0",
"F.	c #445A69",
"G.	c #7398B1",
"H.	c #607F94",
"I.	c #516B7D",
"J.	c #67889E",
"K.	c #85AFCC",
"L.	c #E5F5FF",
"M.	c #CFECFF",
"N.	c #AFDFFF",
"O.	c #E3F4FF",
"P.	c #CAE9FF",
"Q.	c #8DBAD9",
"R.	c #92C0E0",
"S.	c #9FD2F5",
"T.	c #ACDEFF",
"U.	c #8EBBDA",
"V.	c #AADDFF",
"W.	c #597689",
"X.	c #D6EEFF",
"Y.	c #506A7B",
"Z.	c #4D6576",
"`.	c #C6E8FF",
" +	c #9ED0F2",
".+	c #C0E5FF",
"++	c #B9E3FF",
"@+	c #B3E0FF",
"#+	c #8AB6D4",
"$+	c #81AAC6",
"                                                                                                                                ",
"                                                                                                                                ",
"                                                                                                                                ",
"                                                                                                                                ",
"                                                                                                                                ",
"                                                                                                                                ",
"                                                                                                                                ",
"                                                                                                                                ",
"                                                                                                                                ",
"                                                                                                                                ",
"                                                                                                                                ",
"                                                                                                                                ",
"                                                                                                                                ",
"                                                                                                                                ",
"                                                                                                                                ",
"                                                                                                                                ",
"                                                                                                                                ",
"                                                                                                                                ",
"                                                                                                                                ",
"                                                                                                                                ",
"                                                                                                                                ",
"                                                                                                                                ",
"                                                                                                                                ",
"                                                                                                                                ",
"                                                                                                                                ",
"                                                                                                                                ",
"                                                                                                                                ",
"                                                                                                                                ",
"                                                                                                                                ",
"                                                                                                                                ",
"                                                                                                                                ",
"                                                                                                                                ",
"                                                                                                                                ",
"                                                                                                                                ",
"                                                                                                                                ",
"                                                                                                                                ",
"                                                                                                                                ",
"                                                                                                                                ",
"                                                                                                                                ",
"                                                                                                                                ",
"                                                                                                                                ",
"                                                                                                                                ",
"                                                                                                                                ",
"                                                                                . + @ # $                                       ",
"                                                                            % & * = - ; > , '                                   ",
"                                                                          ) ! ~ { ] ^ , / ( _ :                                 ",
"                                                                        < [ } | 1 2 3 1 4 3 4 1 5                               ",
"                                                                      6 7 ' 8 9 0 a b c d e : f g                               ",
"                                                                    h i j k ' + l 6 6 m b n o p q r                             ",
"                                                                    d s _ 3 t u | v v w x y z A B C                             ",
"                            ] D E @ F G H I J K . . L L L C . # M N h O P Q b R v     v S F T R U V                             ",
"                          W X ( ~ & Y Z `  ...+.Q @.#.$.$.%.$.7 &.*.: =.| -.;.>.        F ,.'.).L a                             ",
"                          m !.e 2 ( @.} ~.3 P 3 {.< ].^.^./.[ } $.$.(._.:.Z ;.G         <.D d [.I G                             ",
"                          b a }.|.1.P =.2.3.4.5.6.7.8.! ! 8.9.B 0.5.F a. .b.U 4.        8.c.w d.G J                             ",
"                          v e.f.g.- m h.F i.&.1 o d j.k.k.l.) ~.4 m.j.n.o.> N q         p.q.r.d.n.s.                            ",
"                            v v f.b C F # w v v v v v v v v v v v v _ t.g.R i u.        =.: v.w.b x.                            ",
"                                y.F ;.b 0 z.                        A.B.C.& {.P D.    E.5 =.(.C.F.G.                            ",
"                                ).H.I.J./.m.                        4 p.! V K.L.M., z N.O.P.o.# Q.h                             ",
"                                R.S.T.&.*.k                         v : *.U.a m 5 =.: 1 V.C W.' 3 X.                            ",
"                                _.*.1 1 =.X                           v =.2 N.Y.a Z.Y K C.] k X O.v                             ",
"                                X.8 w !.&.=.                            v 8 : 4 `.@. +j O.W .+++v                               ",
"                                v v v v v v                               v p s @+p g [ #+).$+v                                 ",
"                                                                            v v u # G + K v v                                   ",
"                                                                                v v v v v                                       "};
