/* XPM */
static char * monster0_xpm[] = {
"64 64 257 2",
"  	c None",
". 	c #0A001C",
"+ 	c #080021",
"@ 	c #0F0031",
"# 	c #140C25",
"$ 	c #190E32",
"% 	c #161124",
"& 	c #17112B",
"* 	c #191324",
"= 	c #1A132C",
"- 	c #1C1A23",
"; 	c #1D1B29",
"> 	c #1C1134",
", 	c #1D201A",
"' 	c #1E202A",
") 	c #2B0E00",
"! 	c #321000",
"~ 	c #221B2D",
"{ 	c #201537",
"] 	c #20133C",
"^ 	c #221B31",
"/ 	c #261B3D",
"( 	c #2B1D3C",
"_ 	c #22261C",
": 	c #272826",
"< 	c #282435",
"[ 	c #2C253B",
"} 	c #2D302A",
"| 	c #312B38",
"1 	c #373835",
"2 	c #231443",
"3 	c #25134C",
"4 	c #261A40",
"5 	c #271849",
"6 	c #29154C",
"7 	c #291B43",
"8 	c #2A1A4B",
"9 	c #261250",
"0 	c #291552",
"a 	c #2B1854",
"b 	c #2E195A",
"c 	c #301B5D",
"d 	c #331C62",
"e 	c #361E69",
"f 	c #2B2343",
"g 	c #342A4A",
"h 	c #322452",
"i 	c #37265A",
"j 	c #382B58",
"k 	c #38334E",
"l 	c #3C3550",
"m 	c #352065",
"n 	c #372168",
"o 	c #382364",
"p 	c #3B236C",
"q 	c #3C2963",
"r 	c #3E286A",
"s 	c #3D2471",
"t 	c #471606",
"u 	c #5D1D07",
"v 	c #402D4F",
"w 	c #433D4F",
"x 	c #403552",
"y 	c #44365D",
"z 	c #463F5A",
"A 	c #412C6C",
"B 	c #422975",
"C 	c #452B7B",
"D 	c #482C7D",
"E 	c #463667",
"F 	c #493476",
"G 	c #474944",
"H 	c #494257",
"I 	c #51534E",
"J 	c #595B56",
"K 	c #4B4063",
"L 	c #4E4268",
"M 	c #4F4A6A",
"N 	c #554B6E",
"O 	c #524570",
"P 	c #534870",
"Q 	c #594A7B",
"R 	c #5E596B",
"S 	c #685C67",
"T 	c #63557C",
"U 	c #62587E",
"V 	c #61625F",
"W 	c #646563",
"X 	c #6E716B",
"Y 	c #73776A",
"Z 	c #777976",
"` 	c #492D82",
" .	c #4C3182",
"..	c #4E3388",
"+.	c #503481",
"@.	c #52348C",
"#.	c #523E84",
"$.	c #51398A",
"%.	c #533591",
"&.	c #57359A",
"*.	c #563893",
"=.	c #583A95",
"-.	c #5A3B9A",
";.	c #5D3CA1",
">.	c #603EA4",
",.	c #534081",
"'.	c #594289",
").	c #5C4097",
"!.	c #5E41A0",
"~.	c #654C9A",
"{.	c #66558F",
"].	c #6C5D8B",
"^.	c #6B5694",
"/.	c #6B5991",
"(.	c #6241A4",
"_.	c #6543AC",
":.	c #6649A3",
"<.	c #6845AD",
"[.	c #6B4AAD",
"}.	c #6946B2",
"|.	c #6C49B3",
"1.	c #6E4AB9",
"2.	c #714DB6",
"3.	c #714DBA",
"4.	c #755AAD",
"5.	c #7352B5",
"6.	c #7452BB",
"7.	c #765AB2",
"8.	c #6F6780",
"9.	c #74659D",
"0.	c #7C64AD",
"a.	c #7D6BA4",
"b.	c #7D61B6",
"c.	c #7F69B3",
"d.	c #7E70A6",
"e.	c #734DC1",
"f.	c #7551C2",
"g.	c #7853C3",
"h.	c #7B53CA",
"i.	c #7D5CC3",
"j.	c #7F5EC9",
"k.	c #7F60C3",
"l.	c #816EAB",
"m.	c #816BB7",
"n.	c #8472AE",
"o.	c #8B78BA",
"p.	c #907CBA",
"q.	c #805DC6",
"r.	c #8261C6",
"s.	c #8363C9",
"t.	c #8A6ACB",
"u.	c #8966D2",
"v.	c #8B6AD1",
"w.	c #8F70D6",
"x.	c #9272D7",
"y.	c #9572DE",
"z.	c #987DD2",
"A.	c #9C7EDE",
"B.	c #9D7BE5",
"C.	c #A07BED",
"D.	c #FF00FF",
"E.	c #80817E",
"F.	c #848583",
"G.	c #8F8F90",
"H.	c #8C9082",
"I.	c #979797",
"J.	c #A29FA9",
"K.	c #A6AA9F",
"L.	c #A8A7A8",
"M.	c #AFB2A8",
"N.	c #B9ADB7",
"O.	c #B4B7AD",
"P.	c #BEBFBD",
"Q.	c #9A87C8",
"R.	c #9B82D3",
"S.	c #9F82E3",
"T.	c #A08AD2",
"U.	c #A58DDA",
"V.	c #A284E3",
"W.	c #A585E9",
"X.	c #A689E7",
"Y.	c #AA8CEC",
"Z.	c #A582F1",
"`.	c #AE8EF0",
" +	c #AB94E1",
".+	c #AD92EA",
"++	c #AC99E8",
"@+	c #B59DEC",
"#+	c #B294F4",
"$+	c #B797FA",
"%+	c #B499F4",
"&+	c #B699F9",
"*+	c #B89EF7",
"=+	c #B99CFB",
"-+	c #B2A9C5",
";+	c #BDA2FB",
">+	c #C1A4FE",
",+	c #C4AAFE",
"'+	c #C9ACFF",
")+	c #CCB1FF",
"!+	c #D2B5FF",
"~+	c #D5B9FF",
"{+	c #DABCFF",
"]+	c #C9C9C8",
"^+	c #D5C7D4",
"/+	c #D6D7D6",
"(+	c #DEE0DD",
"_+	c #E0C3FF",
":+	c #E5E6E4",
"<+	c #EFF0EF",
"[+	c #F1F5E9",
"}+	c #FDFDFC",
"|+	c #000000",
"1+	c #18FC3C",
"2+	c #BB0D49",
"3+	c #BAABCD",
"4+	c #02123A",
"5+	c #18F7D0",
"6+	c #0162FA",
"7+	c #0B06F6",
"8+	c #00000F",
"9+	c #000000",
"0+	c #000000",
"a+	c #BB0D49",
"b+	c #BAABCD",
"c+	c #000000",
"d+	c #000000",
"e+	c #BB0D49",
"f+	c #18F7E0",
"g+	c #18F7FC",
"h+	c #080230",
"i+	c #1AE59E",
"j+	c #18F848",
"k+	c #016D91",
"l+	c #016D51",
"m+	c #021D71",
"n+	c #00000F",
"o+	c #BB0D49",
"p+	c #18FAD4",
"q+	c #000024",
"r+	c #000001",
"s+	c #000000",
"t+	c #000000",
"u+	c #000070",
"v+	c #FFFFFF",
"w+	c #FFFFFF",
"x+	c #016CE9",
"y+	c #016D91",
"z+	c #FFFFFE",
"A+	c #000001",
"B+	c #000000",
"C+	c #000000",
"D+	c #18F7EC",
"E+	c #0B06F6",
"F+	c #18FAA4",
"G+	c #0A001C",
"H+	c #0A001C",
"                                                                                                                                ",
"                                                                                                                                ",
"                                                                                                                                ",
"                                                                                                                                ",
"                                                                                                                                ",
"                                                                                                                                ",
"                                                                                                                                ",
"                                                                                              .                                 ",
"                              . .                                                           . . .                               ",
"                              . ; . .                                                     . . M .                               ",
"                              . U O .                                                     . 9.p..                               ",
"                              . a./.. .                                                 . . R.@+. .                             ",
"                            . . n.,+. .                                                 . . S.)+< .                             ",
"                          . . N V.~+[ . .                                             . . 7 $+)+p.. .                           ",
"                      . . . d.X.v.=+Q.. .                 . . . . . .                 . . c.&+y.,+N . . .                       ",
"                . . . k a.,+'+s.6.s.)+a.. .           . . . . . . . . . .           . . Q !+.+}.s.V.a.l . . . .                 ",
"          . . . ' ].@+)+~+&+q._.>.}.s.#+E .       . . . ; P l.'+'+l.[ . . .       . . [ ;+)+s.<._.6.B.;+=+o.y . . . .           ",
"      . . . ^ d.;+~+~+&+v.}.%.C ..(._.v..+. .   . . . p.!+~+!+!+~+~+~+T.. . .   . . .  +{+A.|.}.|.}.}.g.v.S.Y.%+o.L . . .       ",
"    . . Q T.'+~+!+`.j.(. .d 0 @.-.(.|.|.C.++v . . l @+{+!+=+C.u.5.0.m.V.4.. . . . . U.~+.+|.(. .D (.|.|.;.` ;.g.y.#+@+{.. .     ",
"  . . 9.)+~+=+w.6.>.` b 3 3 d -.[.(.C -.3.Z.. . z  +!+j . . . o . . . . %.'.1 . . Q _+>+6._.d a 0 d _.|.d 3 3 s ;.1.u.`.^.. .   ",
"  . * )+!+W.f.;.s c 0 0 a p <.|.-.d 3 m }.] . k >+'+^ _ }+}+(+} G }+}+O.. ;.[.g . . ^.f.|.` 3 c b 0  .2.p 9 0 c ` ;.}.f.i.. .   ",
"  . K ~+A.=.D 6 # ] 0 c C <.|.s b a a s q . 8 R.>+).. }+. . . P.}+. . . H./ h.@.c . ~ <.|.b a b c b c (.|.B a A A  .!.1.6.> .   ",
"  . 9.0.{ . . . . . % o p C 3 2 a a b $.. ^ 6.>+x.# 1 ]+. . . H.}+. . . K.. 3.%.c 2 . ).-.0 c a 6 a b o (.h . . . . . 7 =.7 .   ",
"  . x . . .         . . # . . . . #  .j . E g.s.|.7 . }+. . . H.}+. . . O.( e.(.c a . +.` 0 # . . . % 2 / . . .     . . . ^ .   ",
"  . . .               . . . . . . . ; . . . 3.1.|._.. Y }+[+Z . 1 :+}+}+J *.f...d ] . [ o ] . . . . . . . .             . . .   ",
"                        . .       . . . . . $.|.3.e.}.n f | D &.. . . @ %.}.` b 6 . . . . . . .       . .                       ",
"                                    . . . . ] B (.1.3.e.f.e.e.f.h.h.f.|.@.d 0 2 . . . . . . .                                   ",
"                                      . . . . > A s  .%.-.-.-.-.@.B b b a 3 . . . . . . .                                       ",
"                                        . 1 1 . . > b b b c c c m 0 2 $ . . . . . . . .                                         ",
"                                        . I G.. . . . # & = # * = . . . . . . . S : .                                           ",
"                                        . X F.. + . . . . . . . . . . . . . . . N.V .                                           ",
"                                      . . J I . . . . , . , . . . J J . . . . . I.I . .                                         ",
"                                    . . . . . . . . . I.F.W . . . L.J . . G . . . . . . .                                       ",
"                                  . . . . . . . G F.. Z W . + + . } } . . Z . . . . . . .                                       ",
"                                . . . . Y . . . ^+L.. , . . ! ) . . _ . . I.. + . . . . . .                                     ",
"                              . . _ } G Z . . N.}+J . . + . u u . + . . . :+. . . W G . . . .                                   ",
"                            . ' [.g.[ . . . F.}+(+. . , . . t t . . . . . }+F.. . . : . . . . .                                 ",
"                          . . [.f. .. . . Z }+}+J . . G } . . . . 1 . . . :+<+G . . . . . [ ' . .                               ",
"                          . E f.3.7 . H M.}+}+I.. . . Z J _ . + . I.. . . 1 }+<+Z 1 . . . . A ; .                               ",
"                          . #.e.1.{ . -+}+}+/+. . } . E.Z W . . . (+1 , . . Z }+}+:+]+E.. . h r . .                             ",
"                          . #.e.6.4 . 8.}+}+]+. . 1 . M.<+L.- . 1 ]+X 1 . . , }+<+/+]+E.. . f p > . .                           ",
"                          . A f.1.r . . J.}+:+1 . . . R | . . . . . ' . . . . . } . . . . . F n b . .                           ",
"                          . j g.3.(.* . . . } } . . * . . + > { & . . . _ 1 . . . . . . . . 5.m c # .                           ",
"                          . # [.|.3.q . . . . . . . . . i :.y.V.t.~.h . . . - . . . . . _ ~.h.d c > .                           ",
"                          . .  .-.3.(.> . . . . . . ] =.X.!+!+)+>+=+#+0.A ^ # . . - w T b.e.f.a d > .                           ",
"                            . 7 B _.f.5.L < - ~ g ,.6.Y.,+,+;+;+.+=+,+'+'+S.4.~.4.z.#+g.|.3.-.3 d = .                           ",
"                            . . 8 B -.3.6.7.m.R.=+~+'+,+>+;+,+>+>+,+,+,+'+)+,+)+'+.+k.|.|.|.m a d # .                           ",
"                              . . a n D _.1.3.|.g.V.%+,+'+,+*+Y.X.#+%+.+V.A.w.r.6.|.}.|.|.D 0 d 3 . .                           ",
"                              . . * a c B [.3.|._._.|.5.6.5._._._._._.<._._._._._.|.|.|. .a b b . .                             ",
"                                . . * a c p *.(.|.|.|._._._.<.<.|.[.<.|.<.}.[.|.|.3.[.C a b b = . .                             ",
"                                  . . ~ 0 c d p  .(.6.3.6.3.3.6.3.2.3.3.2.3.3.6.3.-.d a b b > . .                               ",
"                                    . . . ] c p c p s C  ...@.$.=.-.-.*.*.-.=.C a 3 a c c = . .                                 ",
"                                      . . . . 5 m d a 0 0 0 0 0 0 0 6 0 3 0 0 0 b d d a # . .                                   ",
"                                        . . . . # 2 c e d d c c c c c c c d d c a ] # . . .                                     ",
"                                            . . . . . . # 6 a b b b a 6 2 > # . . . . . .                                       ",
"                                                . . . . . . . . . = = . . . . . . . .                                           ",
"                                                    . . . . . . . . . . . . . .                                                 ",
"                                                                                                                                ",
"                                                                                                                                ",
"                                                                                                                                ",
"                                                                                                                                ",
"                                                                                                                                ",
"                                                                                                                                ",
"                                                                                                                                "};
