/* XPM */
static char * Monstre0a_xpm[] = {
"64 64 257 2",
"  	c None",
". 	c #0B0015",
"+ 	c #0D001A",
"@ 	c #0D0A11",
"# 	c #0E0D11",
"$ 	c #0E0819",
"% 	c #120603",
"& 	c #100C0A",
"* 	c #190903",
"= 	c #120112",
"- 	c #16071B",
"; 	c #130B12",
"> 	c #110B1B",
", 	c #1B0C1B",
"' 	c #121213",
") 	c #14121A",
"! 	c #181717",
"~ 	c #18151A",
"{ 	c #1B1B1C",
"] 	c #140C23",
"^ 	c #160D2A",
"/ 	c #180E2D",
"( 	c #1A0E32",
"_ 	c #161122",
": 	c #191521",
"< 	c #1B132C",
"[ 	c #1E1C23",
"} 	c #1D1929",
"| 	c #1D1332",
"1 	c #1E1039",
"2 	c #270C04",
"3 	c #2B0E04",
"4 	c #361307",
"5 	c #3C1407",
"6 	c #230425",
"7 	c #211D22",
"8 	c #211C2C",
"9 	c #221735",
"0 	c #21143C",
"a 	c #221A32",
"b 	c #25193B",
"c 	c #232323",
"d 	c #26222F",
"e 	c #2A2A2B",
"f 	c #272133",
"g 	c #2A2535",
"h 	c #2C253B",
"i 	c #2E2C32",
"j 	c #2F283F",
"k 	c #322E3A",
"l 	c #323232",
"m 	c #3B3B3B",
"n 	c #231443",
"o 	c #26154A",
"p 	c #29164E",
"q 	c #291C43",
"r 	c #2B1A4B",
"s 	c #291750",
"t 	c #2C1953",
"u 	c #2E1959",
"v 	c #311C5C",
"w 	c #341E61",
"x 	c #2C2046",
"y 	c #302743",
"z 	c #31244D",
"A 	c #312A41",
"B 	c #322849",
"C 	c #382D4E",
"D 	c #312152",
"E 	c #362558",
"F 	c #372856",
"G 	c #3A2F51",
"H 	c #382859",
"I 	c #3B344B",
"J 	c #3E305C",
"K 	c #362064",
"L 	c #392265",
"M 	c #3C246C",
"N 	c #3D2A64",
"O 	c #3F2672",
"P 	c #3F2872",
"Q 	c #471707",
"R 	c #40345B",
"S 	c #443A5A",
"T 	c #483E5D",
"U 	c #402F63",
"V 	c #412E6A",
"W 	c #422A73",
"X 	c #462C7B",
"Y 	c #482D7E",
"Z 	c #463669",
"` 	c #473967",
" .	c #483D62",
"..	c #4D3D6D",
"+.	c #473075",
"@.	c #483075",
"#.	c #493479",
"$.	c #4E3A77",
"%.	c #513E72",
"&.	c #444344",
"*.	c #454348",
"=.	c #4A4A4B",
"-.	c #4F495A",
";.	c #514751",
">.	c #514950",
",.	c #514D5B",
"'.	c #545454",
").	c #5A595A",
"!.	c #4C4164",
"~.	c #50456B",
"{.	c #534374",
"].	c #574A76",
"^.	c #5A4B77",
"/.	c #5E507C",
"(.	c #646464",
"_.	c #646268",
":.	c #6C6A6C",
"<.	c #6F687D",
"[.	c #706F70",
"}.	c #737273",
"|.	c #7B7B7B",
"1.	c #492F81",
"2.	c #4C3183",
"3.	c #4F3388",
"4.	c #503684",
"5.	c #52368C",
"6.	c #523B83",
"7.	c #553B8C",
"8.	c #583E8B",
"9.	c #563892",
"0.	c #593C94",
"a.	c #5D3D9C",
"b.	c #5A4785",
"c.	c #594288",
"d.	c #5F4F81",
"e.	c #5C4292",
"f.	c #5D419B",
"g.	c #5F40A0",
"h.	c #614B8E",
"i.	c #654D96",
"j.	c #654B9B",
"k.	c #635584",
"l.	c #66568C",
"m.	c #695399",
"n.	c #6F5C98",
"o.	c #6242A3",
"p.	c #6645AA",
"q.	c #6847AC",
"r.	c #694EA3",
"s.	c #6A49AD",
"t.	c #6B49B1",
"u.	c #6B51A0",
"v.	c #704EB5",
"w.	c #7052AF",
"x.	c #715BA3",
"y.	c #755BAE",
"z.	c #7150B6",
"A.	c #7453B9",
"B.	c #7659B1",
"C.	c #7B5CBE",
"D.	c #75649B",
"E.	c #7E7C82",
"F.	c #7862A6",
"G.	c #7B65AE",
"H.	c #7D6AA5",
"I.	c #7E6CA8",
"J.	c #7C5CC0",
"K.	c #7F60C1",
"L.	c #867C85",
"M.	c #846EB4",
"N.	c #856CBA",
"O.	c #8270AC",
"P.	c #8770B7",
"Q.	c #8264C4",
"R.	c #8666C9",
"S.	c #8669C2",
"T.	c #8B6DCD",
"U.	c #8D72C6",
"V.	c #8E72C9",
"W.	c #8F70D2",
"X.	c #9075CC",
"Y.	c #937EC2",
"Z.	c #9278CB",
"`.	c #9173D1",
" +	c #9579D2",
".+	c #987ED1",
"++	c #9B7DDC",
"@+	c #FF00FF",
"#+	c #838383",
"$+	c #8C8B8C",
"%+	c #908D96",
"&+	c #929292",
"*+	c #9F9F9F",
"=+	c #978FA6",
"-+	c #9280BD",
";+	c #9F9EA0",
">+	c #A19AA0",
",+	c #A89FA8",
"'+	c #A3A3A3",
")+	c #ADACAE",
"!+	c #B5B5B5",
"~+	c #B6B4BA",
"{+	c #B9B9B9",
"]+	c #9681C6",
"^+	c #9880CC",
"/+	c #9C82D4",
"(+	c #9D81DC",
"_+	c #A58CDB",
":+	c #A284E2",
"<+	c #A589E4",
"[+	c #A98DEA",
"}+	c #AA91E2",
"|+	c #AC91EB",
"1+	c #B095ED",
"2+	c #B298ED",
"3+	c #B296F1",
"4+	c #B69AF3",
"5+	c #B99DF6",
"6+	c #BA9EF8",
"7+	c #BDA2FB",
"8+	c #C4C4C4",
"9+	c #CACACB",
"0+	c #D2D1D2",
"a+	c #D9D9D9",
"b+	c #E4DFE4",
"c+	c #E4E3E4",
"d+	c #ECEBEC",
"e+	c #F2ECF2",
"f+	c #F5F5F5",
"g+	c #FBFBFB",
"h+	c #080230",
"i+	c #506CD4",
"j+	c #18F848",
"k+	c #016D91",
"l+	c #016D51",
"m+	c #4894C0",
"n+	c #00000F",
"o+	c #BB0D49",
"p+	c #18FAD4",
"q+	c #000024",
"r+	c #000001",
"s+	c #000000",
"t+	c #000000",
"u+	c #000070",
"v+	c #FFFFFF",
"w+	c #FFFFFF",
"x+	c #016CE9",
"y+	c #016D91",
"z+	c #FFFFFE",
"A+	c #000001",
"B+	c #000000",
"C+	c #000000",
"D+	c #18F7EC",
"E+	c #03087C",
"F+	c #18FAA4",
"G+	c #0B0015",
"H+	c #0B0015",
"                                                                                                                                ",
"                                                                                                                                ",
"                                                                                                                                ",
"                                                                                                                                ",
"                                                                                                                                ",
"                                                                                                                                ",
"                                                                                                                                ",
"                                                                                                                                ",
"                                                                                                                                ",
"                                                                                                                                ",
"                                                                                                                                ",
"                                                                                                                                ",
"                                                          . . + ; .                                                             ",
"                                                      . . . + > ' @ , .                                                         ",
"                                                  . . . A ].F._+_+D.G + + .                                                     ",
"                                                . . a I.}+4+5+7+7+4+}+I.f + .                                                   ",
"                                              . . S ]+2+2+:+`.S.y.x.F.P.h.8 . .                                                 ",
"                                            . . !.Y.}+].} < b ` b } : b 6.$.A . .                                               ",
"                                          . . R /+}+ .'.9+c+9+}.}.0+d+;+k 7.c.z . .                                             ",
"                                        . + H P.<+i.>.c+f+g+g+g+f+g+g+d+&+R q.2.r . . .                                         ",
"                                      . < q r.:+S.z ).a+d+f+f+f+f+g+g+e+*+A o.5.v < + . .                                       ",
"                                  . > + > U s.K.s.H l 0+).=.).&+a+:.}.'.%+R q.0.K n ; . . . .                                   ",
"                              . . + + < > a o.t.t.f.B }.8+)+_.d =.,+9+!+(.7.p.1.v 0 q Z < + + . . .                             ",
"                + 6       . + + | q U 6.9 > #.o.s.t.o.#.!.!.6.6.x < x E 7.a.Y v n $ F w.e.N q | + + .     . . . .               ",
". . . +     - > b 0 / . @ $ p V p.A.X.P.8 @ b W a.p.s.s.s.p.s.q.p.o.g.0.2.K t 0 . + } /+/+`.A.q.M t $ . . . 0 b > - . + + . . . ",
". @.r ] @ . ] D 5.L u o o o v 5.4.U. .) + ~ ) b L W 1.5.9.9.9.9.3.W K v t n ] + + + ' !.j k. +4.5.v r n o u L 5.D _ . @ _ r @.. ",
". f.o.8.@.N t P a.9.L v u u K o.9.S + + + l i + > 1 t v v v K v K r n | ] . + + @ ~ + ) + + D.e.o.K u u v L 9.a.P t N @.7.o.g.. ",
". %.N.Q.z.o.w v P p.g.O v w o.C.n.+ + . + &.:.+ + + $ ^ | < ( < | ] @ + + + + ~ ;.e + + + + A .+C.o.w v O o.o.P v w o.A.Q.V.%.+ ",
"+ + y d.N.Q.f.5.o.s.t.g.2.3.z.N.A + +   + ).(.' + + + + + + + + + + + + + + + 7 L.>.- + + + @ /.Z.A.2.2.o.s.t.o.5.f.Q.X.M...+ + ",
"    = + + @ C l.P.Z.T.C.t.t.^+g + +     + &.&.+ + + + c c [ ' @ [ *.*.+ + + + ' :.&.+ e ' + + + !.<+v.t.A.W..+Y.n.G + + + = .   ",
"        + + + + + :  .G.C.z.~.+ +     + + + ~ + { { + :.(.=.+ + + }.=.+ + l + + { + + { ; . + + + I.A.Q.V.l.h @ + + + +         ",
"                + + + + T -+@ + + + + + + + + + =.(.{ ).'.+ + + + e e + ' '.+ + + + + + + .   + + a }+H.} . . =                 ",
"                    + + + i . + + + + { '.{ ' e ,+#+{ c ! + 3 2 + + { + [ }.- + & + + + + ~     + + O.j . .                     ",
"                        . + + + ) f e m '.' e >+a+).+ ' + * Q Q % + ' + e ,+l + ' &.l + + + {     + j . .                       ",
"                            + a 8.e.j ' ' { #+c+{+c + { + % 5 4 & + + + c 0+|.' + ' c + + ) + '   = @ .                         ",
"                          . . 0.q.+.) ; c |.b+c+(.+ + m e + & + ' e ' + @ !+9+).' + + + + 8 < + +                               ",
"                          . N s.o.D < -.'+c+d+&+{ + { ).'.e + + { [.c + + =.0+9+|.=.e ' + @ D < + .                             ",
"                          . #.t.o.r | =+e+g+8+m + c c }.}.).+ + e '+m c + + |.e+c+8+'+(.+ + x D > .                             ",
"                        . . @.t.q.z _ <.d+g+{+c ' e c $+~+E.c + m &+).l + + l 9+9+{+,+(.+ + q K 1 . .                           ",
"                        . . Z t.s.N > g %+0+{+m + ' { ,.I 8 ) ; ~ c i { ' + + l m l 7 + + + U K p ] =                           ",
"                        . + H s.s.0.9 + ) i m e + ' : : > a q x q a _ > c e - + + + + + + 8 e.M t ^ + .                         ",
"                        . + q a.p.p.N @ + + + + + ) > | N m.S.V.N.i.J a : [ [ ) ; + + ' g c.q.M u | + .                         ",
"                        . + < W 0.p.0.q @ ; ' ~ ) : D e. +7+7+7+4+|+(+F.{.z b < } h S ^.u.t.q.w u ( . .                         ",
"                          + @ q W a.s.j.` A h A R b.B.(+6+7+7+7+3+4+7+5+2+Z.y.m.x.P.Z.z.t.t.9.v u | . >                         ",
"                          + + : r W 9.p.s.u.y.N.(+4+4+6+7+7+7+7+6+7+7+7+7+5+1+1+|+++Q.v.t.o.M u t ^ . .                         ",
"                            + + < t M 2.o.t.t.A.K.++[+5+6+5+1+:+:+[+[+<+(+++W.R.J.A.t.t.p.1.v u n $ + .                         ",
"                            + + @ < t K X o.s.s.t.v.A.J.J.J.A.A.A.A.z.A.v.t.t.t.t.t.t.p.2.v u t ] + @                           ",
"                              + + @ < r v W 7.g.q.t.t.t.t.t.t.t.t.t.t.t.t.t.t.t.t.s.o.Y w u t ( + + .                           ",
"                                . + ; | r v M O 2.a.t.t.t.t.t.t.t.t.t.t.t.t.t.t.p.9.M v u t | . + .                             ",
"                                  + + + ] n t K K M X X 2.3.5.5.9.0.0.7.9.9.9.Y K v u u t ( @ + +                               ",
"                            . . + + + + + @ ^ n v v v u v w v v v w v v v v v u u v u o ^ . + + . .                             ",
"                        . + + + + + + + + + + $ / n t u v u v u v u u u u v u t o 0 ( $ + + + + + + . +                         ",
"                      . . + + + + + + + + + + + + @ ] | n o p s s s s o n 1 / ] > . + + + + + + + + + + +                       ",
"                    . + + + + + + + + + + + + + + + + + $ ] > ] ^ < | ] $ . + + + + + + + + + + + + + + + +                     ",
"                    + + + + + + + + + + + + + + + + + + + + + + + + + + + + + + + + + + + + + + + + + + + +                     ",
"                    + + + + + + + + + + + + + + + + + + + + + + + + + + + + + + + + + + + + + + + + + + + +                     ",
"                    + + + + + + + + + + + + + + + + + + + + + + + + + + + + + + + + + + + + + + + + + + + +                     ",
"                    . + + + + + + + + + + + + + + + + + + + + + + + + + + + + + + + + + + + + + + + + + +                       ",
"                      . + + + + + + + + + + + + + + + + + + + + + + + + + + + + + + + + + + + + + + + +                         ",
"                        + + + + + + + + + + + + + + + + + + + + + + + + + + + + + + + + + + + + + + +                           ",
"                            + + + + + + + + + + + + + + + + + + + + + + + + + + + + + + + + + + +                               ",
"                              . . + + + + + + + + + + + + + + + + + + + + + + + + + + + + + +                                   ",
"                                      . . . + + + + + + + + + + + + + + + + + + + + +                                           ",
"                                                . . . . . . . . . . . . . . + .                                                 "};
