/* XPM */
static char * Monstre0d_xpm[] = {
"64 64 210 2",
"  	c None",
". 	c #0D001A",
"+ 	c #E0D79B",
"@ 	c #0B0015",
"# 	c #110B1B",
"$ 	c #9A2400",
"% 	c #4C482C",
"& 	c #FFFDBC",
"* 	c #792208",
"= 	c #FFFFFF",
"- 	c #1B132C",
"; 	c #230425",
"> 	c #1D1332",
", 	c #291C43",
"' 	c #402F63",
") 	c #523B83",
"! 	c #777146",
"~ 	c #16071B",
"{ 	c #25193B",
"] 	c #21143C",
"^ 	c #180E2D",
"/ 	c #0D0A11",
"( 	c #0E0819",
"_ 	c #29164E",
": 	c #412E6A",
"< 	c #6645AA",
"[ 	c #7453B9",
"} 	c #9075CC",
"| 	c #8770B7",
"1 	c #471707",
"2 	c #FF6A3C",
"3 	c #483075",
"4 	c #2B1A4B",
"5 	c #140C23",
"6 	c #312152",
"7 	c #52368C",
"8 	c #392265",
"9 	c #2E1959",
"0 	c #26154A",
"a 	c #311C5C",
"b 	c #503684",
"c 	c #8D72C6",
"d 	c #483D62",
"e 	c #14121A",
"f 	c #5D419B",
"g 	c #6242A3",
"h 	c #583E8B",
"i 	c #3D2A64",
"j 	c #2C1953",
"k 	c #3F2872",
"l 	c #5D3D9C",
"m 	c #563892",
"n 	c #362064",
"o 	c #443A5A",
"p 	c #4F1908",
"q 	c #513E72",
"r 	c #856CBA",
"s 	c #8264C4",
"t 	c #7150B6",
"u 	c #341E61",
"v 	c #5F40A0",
"w 	c #3F2672",
"x 	c #7B5CBE",
"y 	c #6F5C98",
"z 	c #302743",
"A 	c #5F4F81",
"B 	c #6A49AD",
"C 	c #6B49B1",
"D 	c #4C3183",
"E 	c #4F3388",
"F 	c #312A41",
"G 	c #120112",
"H 	c #382D4E",
"I 	c #66568C",
"J 	c #9278CB",
"K 	c #8B6DCD",
"L 	c #9880CC",
"M 	c #2A2535",
"N 	c #191521",
"O 	c #7B65AE",
"P 	c #50456B",
"Q 	c #1B1B1C",
"R 	c #121213",
"S 	c #1D1929",
"T 	c #372856",
"U 	c #483E5D",
"V 	c #9280BD",
"W 	c #4A4A4B",
"X 	c #646464",
"Y 	c #545454",
"Z 	c #4C4164",
"` 	c #9C82D4",
" .	c #7052AF",
"..	c #463669",
"+.	c #2E2C32",
"@.	c #2A2A2B",
"#.	c #A89FA8",
"$.	c #838383",
"%.	c #1E1C23",
"&.	c #737273",
"*.	c #100C0A",
"=.	c #2F283F",
"-.	c #5C4292",
";.	c #272133",
">.	c #3B3B3B",
",.	c #A19AA0",
"'.	c #D9D9D9",
").	c #5A595A",
"!.	c #190903",
"~.	c #120603",
"{.	c #323232",
"].	c #444344",
"^.	c #635584",
"/.	c #9173D1",
"(.	c #221A32",
"_.	c #E4E3E4",
":.	c #B9B9B9",
"<.	c #232323",
"[.	c #3C1407",
"}.	c #361307",
"|.	c #D2D1D2",
"1.	c #7B7B7B",
"2.	c #75649B",
"3.	c #9579D2",
"4.	c #593C94",
"5.	c #6847AC",
"6.	c #473075",
"7.	c #130B12",
"8.	c #E4DFE4",
"9.	c #B5B5B5",
"0.	c #CACACB",
"a.	c #5E507C",
"b.	c #987ED1",
"c.	c #4F495A",
"d.	c #A3A3A3",
"e.	c #ECEBEC",
"f.	c #929292",
"g.	c #706F70",
"h.	c #3C246C",
"i.	c #493479",
"j.	c #978FA6",
"k.	c #F2ECF2",
"l.	c #FBFBFB",
"m.	c #C4C4C4",
"n.	c #7E6CA8",
"o.	c #A589E4",
"p.	c #31244D",
"q.	c #161122",
"r.	c #6F687D",
"s.	c #8C8B8C",
"t.	c #B6B4BA",
"u.	c #7E7C82",
"v.	c #8270AC",
"w.	c #AA91E2",
"x.	c #704EB5",
"y.	c #908D96",
"z.	c #514D5B",
"A.	c #3B344B",
"B.	c #211C2C",
"C.	c #18151A",
"D.	c #7D6AA5",
"E.	c #231443",
"F.	c #382859",
"G.	c #221735",
"H.	c #2C2046",
"I.	c #8E72C9",
"J.	c #695399",
"K.	c #8669C2",
"L.	c #654D96",
"M.	c #3E305C",
"N.	c #8F70D2",
"O.	c #422A73",
"P.	c #BDA2FB",
"Q.	c #B69AF3",
"R.	c #AC91EB",
"S.	c #9D81DC",
"T.	c #7862A6",
"U.	c #534374",
"V.	c #2C253B",
"W.	c #5A4B77",
"X.	c #654B9B",
"Y.	c #473967",
"Z.	c #40345B",
"`.	c #5A4785",
" +	c #7659B1",
".+	c #BA9EF8",
"++	c #B296F1",
"@+	c #B99DF6",
"#+	c #B298ED",
"$+	c #755BAE",
"%+	c #715BA3",
"&+	c #937EC2",
"*+	c #6B51A0",
"=+	c #B095ED",
"-+	c #9B7DDC",
";+	c #7F60C1",
">+	c #A98DEA",
",+	c #A284E2",
"'+	c #8666C9",
")+	c #7C5CC0",
"!+	c #3A2F51",
"~+	c #462C7B",
"{+	c #553B8C",
"]+	c #482D7E",
"^+	c #846EB4",
"/+	c #4D3D6D",
"(+	c #160D2A",
"_+	c #1A0E32",
":+	c #291750",
"<+	c #1E1039",
"                                                                                                                                ",
"                                                                                                                                ",
"                                                                                                                                ",
"                                                                                                                                ",
"                                                                                                                                ",
"                                                                                                                                ",
"                                                                                                                                ",
"                                                                                                                                ",
"                                                                                                                                ",
"                                                                                                                                ",
"                                                                                                                                ",
"                                                                                                                                ",
"                                                                                                                                ",
"                                                                                                                                ",
"                                                                                                                                ",
"                                                                                                                                ",
"                                                                                                                                ",
"                                                                                                                                ",
"                                                                                                                                ",
"                                                                                                                                ",
"                                                                                                                                ",
"                                                                                                                                ",
"                                                                                                                                ",
"                                                                                                                                ",
"                                                                                                                                ",
"                                                                                                                                ",
"                                                                                                                                ",
"                                                                                                                                ",
"                                                            . . . .                                                             ",
"                                      . .   . .         . . . + + . .     . . . .         . . . .                               ",
"                                  @ # . . . . . .       . $ % & + % . .   . * $ . .     . = = = = .                             ",
"                              @ @ . . - . . $ $ . .     . % & & & + % . . * * $ $ .   . = = = . = . .                           ",
"                . ;       @ . . > , ' ) . . $ $ $ . . . . ! ! & + ! * . * * * * $ .   . = = . . . = .                           ",
"@ @ @ .     ~ # { ] ^ @ / ( _ : < [ } | . $ $ * $ $ . . $ ! + + ! % 1 * * $ 1 * * . . . 2 = . . . = .                           ",
"@ 3 4 5 / @ 5 6 7 8 9 0 0 0 a 7 b c d e . $ * * * * $ $ $ ! & & ! $ 1 $ $ 1 1 $ * 2 * 2 2 2 = . = = .                           ",
"@ f g h 3 i j k l m 8 a 9 9 n g m o . . . $ * * * * * p 1 ! + ! % $ p $ * 1 * 1 1 2 2 2 $ 2 = = = . . . .                       ",
"@ q r s t g u a k < v w a u g x y . . . $ $ * * * p p p * ! ! + ! % p * * p p * $ 1 * * 2 $ 2 = . . $ $ . . .                   ",
". . z A r s f 7 g B C v D E t r F . $ $ $ * * p p p * p * ! + + ! % p * * $ $ * 2 2 2 $ 2 2 . . . * $ $ $ $ .                   ",
"    G . . / H I | J K x C C L M . $ $ * * $ * p p p p p p ! & & ! % * p * p p $ $ 1 1 1 1 1 1 * * $ $ . . . .                   ",
"        . . . . . N d O x t P . . $ * $ $ $ * p Q Q . $ * * p & p p * p . ~ p p p 1 * $ $ 1 1 $ $ $ R S T . .                   ",
"                . . . . U V / . . $ $ . $ $ $ . W X Q p $ 1 p p p p * . R Y . . $ $ $ * * 1 1 * * $ Z `  ...@                   ",
"                    . . . +.@ . . . . Q Y Q R @.#.$.Q $ $ p * p $ p * . %.&.~ . *.. . * * * * * * . =.` -.- @                   ",
"                        @ . . . e ;.@.>.Y R @.,.'.).. R . !.1 $ ~.. R . @.#.{.. R ].{.. * * * . . . ^./.i . @                   ",
"                            . (.h -.=.R R Q $._.:.<.. Q . ~.[.}.*.. . . <.|.1.R . R <.. . . . / F 2.3.[ , . @                   ",
"                          @ @ 4.5.6.e 7.<.1.8._.X . . >.@.. *.. R @.R . / 9.0.).R . . . . . . a.b.-.b 5.> @                     ",
"                          @ i B g 6 - c.d._.e.f.Q . Q ).Y @.. . Q g.<.. . W |.0.1.W @.. . . Z J x g 7 h.. @                     ",
"                          @ i.C g 4 > j.k.l.m.>.. <.<.&.&.).. . @.d.>.<.. . 1.k._.G . . (.n.o.[ g n a j . @                     ",
"                          @ 3 C 5.p.q.r.e.m.X >.R @.<.s.t.u.<.. >.f.).{.. . {.0.0./ =.v.w.[ x.D u 9 4 ( @                       ",
"                          @ ..C B i # M y.X >.<.. R Q z.A.B.e 7.C.<.+.Q R . . {.>.@ @ =.D.s C D a 9 E.@                         ",
"                          . F.B B 4.G.. e +.<.R . R N N # (., H., (.q.# <.@.~ . . . @ @ S I.[ g w a 0 @                         ",
"                          . , l < < i / . . . . . e # > i J.K.I.r L.M.(.N %.%.e 7.. . @ @ I N.B g 8 9 . .                       ",
"                          . - O.4.< 4., / 7.R C.e N 6 -.3.P.P.P.Q.R.S.T.U.p.{ - S V.o W.@ V.b.C g m 8 ] .                       ",
"                          . . , O.l B X.Y.F V.F Z.`. +S..+P.P.P.++Q.P.@+#+J $+J.%+| J G / &+g k l 7 { @ .                       ",
"                            . N 4 O.m < B *+$+r S.Q.Q..+P.P.P.P..+P.P.P.P.@+=+=+R.-+s x.. y 7 a k 6 # @                         ",
"                            . . - j h.D g C C [ ;+-+>+@+.+@+=+,+,+>+>+o.S.-+N.'+)+[ C C . !+f u j q.~ .                         ",
"                              . . - j n ~+g B B C x.[ )+)+)+[ [ [ [ t [ x.C C C C C C < . . s g i @ @ .                         ",
"                                . . - 4 a O.{+v 5.C C C C C C C C C C C C C C C C B g ]+. . } [ 3 / .                           ",
"                                  . . > 4 a h.w D l C C C C C C C C C C C C C C < m h.a 9 . ^+s {+q..                           ",
"                                    . . 5 E.j n n h.~+~+D E 7 7 m 4.4.{+m m m ]+n a 9 9 j G /+I.g 4 @                           ",
"                                      . . . (+E.a a a 9 a u a a a u a a a a a 9 9 a 9 0 (+@ . q v 3 @                           ",
"                                          . . ( ^ E.j 9 a 9 a 9 a 9 9 9 9 a 9 j 0 ] _+( . . . . @ @ .                           ",
"                                              . . / 5 > E.0 _ :+:+:+:+0 E.<+^ 5 # @ . .                                         ",
"                                                  . . . ( 5 # 5 (+- > 5 ( @ . . . .                                             ",
"                                                      . . . . . . . . . .                                                       "};
