/* XPM */
static char * projectile0_xpm[] = {
"64 64 118 2",
"  	c None",
". 	c #68D3FF",
"+ 	c #61CEFA",
"@ 	c #3DB3E5",
"# 	c #3FB5E6",
"$ 	c #64D0FC",
"% 	c #5DCBF8",
"& 	c #50C1F0",
"* 	c #41B6E7",
"= 	c #3BB2E4",
"- 	c #44B8E9",
"; 	c #49BCEC",
"> 	c #60CDFA",
", 	c #4BBDED",
"' 	c #5BC9F7",
") 	c #6ACDF6",
"! 	c #62C8F2",
"~ 	c #3FB4E5",
"{ 	c #3DB2E3",
"] 	c #5BC0EB",
"^ 	c #6ED0F9",
"/ 	c #69D0FB",
"( 	c #46BAEA",
"_ 	c #5ECCF9",
": 	c #56C3F1",
"< 	c #D8F3FE",
"[ 	c #F3FBFF",
"} 	c #EAF8FF",
"| 	c #D2EDF9",
"1 	c #E8F6FC",
"2 	c #F8FCFE",
"3 	c #D0F0FD",
"4 	c #71D5FF",
"5 	c #79D6FC",
"6 	c #54C4F3",
"7 	c #56C6F4",
"8 	c #BBE5F7",
"9 	c #FDFEFF",
"0 	c #F5FBFE",
"a 	c #FCFEFF",
"b 	c #F9FCFF",
"c 	c #ADE7FF",
"d 	c #87DBFE",
"e 	c #57C7F5",
"f 	c #4EBFEF",
"g 	c #58C7F5",
"h 	c #DEF3FC",
"i 	c #FBFDFF",
"j 	c #F6FBFE",
"k 	c #EDF9FF",
"l 	c #85D9FC",
"m 	c #5AC9F7",
"n 	c #64D0FD",
"o 	c #5CCAF8",
"p 	c #C4EBFC",
"q 	c #F8FCFF",
"r 	c #60C8F3",
"s 	c #4CBFED",
"t 	c #4DBFEE",
"u 	c #61CEFB",
"v 	c #5CCAF7",
"w 	c #9DD9F1",
"x 	c #DBF1FA",
"y 	c #45B9EA",
"z 	c #43B7E8",
"A 	c #55C5F3",
"B 	c #66D2FE",
"C 	c #47B7E6",
"D 	c #D3F1FD",
"E 	c #F7FCFF",
"F 	c #EEF8FD",
"G 	c #E8F7FE",
"H 	c #87D9FB",
"I 	c #9DDDF8",
"J 	c #52BBE7",
"K 	c #3CB2E4",
"L 	c #A4DBF2",
"M 	c #D3F2FF",
"N 	c #B0E8FF",
"O 	c #F4FCFF",
"P 	c #D3EDF9",
"Q 	c #C3ECFD",
"R 	c #C1EBFC",
"S 	c #E1F6FF",
"T 	c #F5FCFF",
"U 	c #D8F0FA",
"V 	c #3AB1E3",
"W 	c #ECF8FD",
"X 	c #E4F7FF",
"Y 	c #DAF4FF",
"Z 	c #E8F8FF",
"` 	c #E5F6FD",
" .	c #72D6FF",
"..	c #84DBFF",
"+.	c #D0EFFD",
"@.	c #E4F4FB",
"#.	c #3EB4E6",
"$.	c #98D8F3",
"%.	c #E7F6FC",
"&.	c #9AE1FE",
"*.	c #73D2FA",
"=.	c #89D1F0",
"-.	c #96DBF8",
";.	c #D5F2FE",
">.	c #F1FAFF",
",.	c #83CEED",
"'.	c #4AB8E6",
").	c #49B7E5",
"!.	c #51BDEA",
"~.	c #42B7E8",
"{.	c #40B5E7",
"].	c #56BEEA",
"^.	c #8DD7F5",
"/.	c #9FD9F1",
"(.	c #5CBEE8",
"_.	c #45B9E9",
":.	c #50C1F1",
"<.	c #3BB2E3",
"                                                                                                                                ",
"                                                                                                                                ",
"                                                                                                                                ",
"                                                                                                                                ",
"                                                                                                                                ",
"                                                                                                                                ",
"                                                                                                                                ",
"                                                                                                                                ",
"                                                                                                                                ",
"                                                                                                                                ",
"                                                                                                                                ",
"                                                                                                                                ",
"                                                                                                                                ",
"                                                                                                                                ",
"                                                                                                                                ",
"                                                                                                                                ",
"                                                                                                                                ",
"                                                                                                                                ",
"                                                                                                                                ",
"                                                                                                                                ",
"                                                                                                                                ",
"                                                              . .                                                               ",
"                                                              . .                                                               ",
"                                                      . + @ #   . .       .                                                     ",
"                                                      $ % & * = - ; -                                                           ",
"                                                  . > , ' ) ! ~ { ] ^ / (   .                                                   ",
"                                                    _ : < [ } | 1 2 3 4 5 6                                                     ",
"                                                  & 7 8 9 0 9 9 9 a b c d e                                                     ",
"                                                . f g h 2 i 9 9 9 j 0 k l m                                                     ",
"                                                  n o p 0 9 9 9 9 a i q r s t                                                   ",
"                                              . > u v w i i 9 9 9 9 9 x y z A . .                                               ",
"                                              . B o @ C D E F a 9 i G H I J K                                                   ",
"                                                A z L M N O a a P Q R S T U V                                                   ",
"                                                  K W X Y S Z `  ...+.i a @.V                                                   ",
"                                                  #.$.%.9 &.*.=.-.;.>.E i ,.- .                                                 ",
"                                              . .   ; '.).!.~.{.V ].^./.(._.. .                                                 ",
"                                                      :.=     . <.# y <.                                                        ",
"                                                    . .     .           . .                                                     ",
"                                                                .     . . .                                                     ",
"                                                                                                                                ",
"                                                                                                                                ",
"                                                                                                                                ",
"                                                                                                                                ",
"                                                                                                                                ",
"                                                                                                                                ",
"                                                                                                                                ",
"                                                                                                                                ",
"                                                                                                                                ",
"                                                                                                                                ",
"                                                                                                                                ",
"                                                                                                                                ",
"                                                                                                                                ",
"                                                                                                                                ",
"                                                                                                                                ",
"                                                                                                                                ",
"                                                                                                                                ",
"                                                                                                                                ",
"                                                                                                                                ",
"                                                                                                                                ",
"                                                                                                                                ",
"                                                                                                                                ",
"                                                                                                                                ",
"                                                                                                                                ",
"                                                                                                                                "};
