/* XPM */
static char * trees2_xpm[] = {
"64 64 257 2",
"  	c None",
". 	c #091500",
"+ 	c #1A0D00",
"@ 	c #191305",
"# 	c #1B1512",
"$ 	c #0C2900",
"% 	c #0C3100",
"& 	c #0D3C00",
"* 	c #112200",
"= 	c #132C00",
"- 	c #1C2300",
"; 	c #1D230A",
"> 	c #1B2B01",
", 	c #143300",
"' 	c #153900",
") 	c #1A3300",
"! 	c #1B3408",
"~ 	c #1B3B00",
"{ 	c #1F3914",
"] 	c #250F00",
"^ 	c #241906",
"/ 	c #241B13",
"( 	c #301A04",
"_ 	c #272506",
": 	c #2A2316",
"< 	c #223301",
"[ 	c #22340B",
"} 	c #223C00",
"| 	c #253B0A",
"1 	c #2A3301",
"2 	c #2B320A",
"3 	c #2A3C01",
"4 	c #283D09",
"5 	c #243910",
"6 	c #2C3112",
"7 	c #2F331A",
"8 	c #2F3C11",
"9 	c #362808",
"0 	c #352A18",
"a 	c #343607",
"b 	c #383419",
"c 	c #2B2522",
"d 	c #352C22",
"e 	c #3B3425",
"f 	c #174100",
"g 	c #1D4200",
"h 	c #1B4900",
"i 	c #234300",
"j 	c #25440C",
"k 	c #244A00",
"l 	c #22480B",
"m 	c #2A4401",
"n 	c #2C440B",
"o 	c #2B4B01",
"p 	c #2D490D",
"q 	c #2C4514",
"r 	c #2C5300",
"s 	c #344403",
"t 	c #33430C",
"u 	c #314C02",
"v 	c #324B0B",
"w 	c #39430A",
"x 	c #3A4D02",
"y 	c #3B4B0B",
"z 	c #354214",
"A 	c #35441A",
"B 	c #334C13",
"C 	c #354918",
"D 	c #394114",
"E 	c #3D451A",
"F 	c #3D4A12",
"G 	c #3C4C1B",
"H 	c #325301",
"I 	c #34520B",
"J 	c #335A00",
"K 	c #355909",
"L 	c #3B5401",
"M 	c #39550B",
"N 	c #3A5D02",
"O 	c #3B5B0A",
"P 	c #355212",
"Q 	c #365218",
"R 	c #3B5412",
"S 	c #3B5219",
"T 	c #3C5B12",
"U 	c #3D5B1A",
"V 	c #3B4221",
"W 	c #346200",
"X 	c #3B6300",
"Y 	c #3D620B",
"Z 	c #3B6900",
"` 	c #3E7208",
" .	c #412C0C",
"..	c #422E13",
"+.	c #453508",
"@.	c #453718",
"#.	c #453A26",
"$.	c #473E32",
"%.	c #45480D",
"&.	c #46461A",
"*.	c #435A07",
"=.	c #435215",
"-.	c #42531B",
";.	c #425B13",
">.	c #435D1B",
",.	c #4D5019",
"'.	c #4C5816",
").	c #4C5C1C",
"!.	c #56451A",
"~.	c #515819",
"{.	c #494427",
"].	c #4C4437",
"^.	c #495624",
"/.	c #574728",
"(.	c #564832",
"_.	c #595528",
":.	c #5A5334",
"<.	c #406403",
"[.	c #42650C",
"}.	c #436B02",
"|.	c #446B0A",
"1.	c #4B6609",
"2.	c #486C00",
"3.	c #496C0C",
"4.	c #436213",
"5.	c #44621B",
"6.	c #456912",
"7.	c #47691C",
"8.	c #4F6514",
"9.	c #4B641C",
"0.	c #4A6C13",
"a.	c #4C6B1B",
"b.	c #457200",
"c.	c #47770A",
"d.	c #447C01",
"e.	c #47790A",
"f.	c #4B7104",
"g.	c #4C730B",
"h.	c #457110",
"i.	c #4C7112",
"j.	c #4D701A",
"k.	c #4D7B15",
"l.	c #526C0A",
"m.	c #516918",
"n.	c #517706",
"o.	c #50750C",
"p.	c #537C0C",
"q.	c #58720F",
"r.	c #517612",
"s.	c #51731B",
"t.	c #537B12",
"u.	c #53781A",
"v.	c #5B731B",
"w.	c #597A16",
"x.	c #597E1D",
"y.	c #4B6825",
"z.	c #4C7320",
"A.	c #556928",
"B.	c #596D38",
"C.	c #587824",
"D.	c #5D7833",
"E.	c #74571B",
"F.	c #614D2A",
"G.	c #614D34",
"H.	c #66582A",
"I.	c #665838",
"J.	c #715D2A",
"K.	c #6B652D",
"L.	c #696337",
"M.	c #64772D",
"N.	c #667733",
"O.	c #637D38",
"P.	c #70602F",
"Q.	c #766539",
"R.	c #575B40",
"S.	c #675B44",
"T.	c #715C40",
"U.	c #676043",
"V.	c #6C614F",
"W.	c #6B6251",
"X.	c #756645",
"Y.	c #7B7643",
"Z.	c #4C8107",
"`.	c #578306",
" +	c #588317",
".+	c #5C8224",
"++	c #5E8128",
"@+	c #5E8A21",
"#+	c #5E9226",
"$+	c #608A0C",
"%+	c #648C1C",
"&+	c #669312",
"*+	c #629319",
"=+	c #69931C",
"-+	c #6E9915",
";+	c #6A9C1C",
">+	c #638324",
",+	c #62842A",
"'+	c #648B23",
")+	c #658A2C",
"!+	c #698028",
"~+	c #6A8D24",
"{+	c #688B2D",
"]+	c #688735",
"^+	c #679123",
"/+	c #6B9423",
"(+	c #6D932A",
"_+	c #6C9A26",
":+	c #6F982E",
"<+	c #6C9432",
"[+	c #758D32",
"}+	c #739A29",
"|+	c #729036",
"1+	c #73933C",
"2+	c #749A33",
"3+	c #7B913E",
"4+	c #7B9D3A",
"5+	c #6AA20D",
"6+	c #71A51C",
"7+	c #6BA22D",
"8+	c #77A529",
"9+	c #7AA734",
"0+	c #6C8B43",
"a+	c #748042",
"b+	c #769A48",
"c+	c #7FAA4E",
"d+	c #846D3B",
"e+	c #87723B",
"f+	c #806F41",
"g+	c #897545",
"h+	c #FF00FF",
"i+	c #80A82E",
"j+	c #81A936",
"k+	c #83B02F",
"l+	c #8ABB37",
"m+	c #98BD3C",
"n+	c #859E46",
"o+	c #82A444",
"p+	c #83A049",
"q+	c #83AA49",
"r+	c #87A855",
"s+	c #8FBC55",
"t+	c #92BB49",
"u+	c #8CC138",
"v+	c #93C13D",
"w+	c #8FC742",
"x+	c #96C24B",
"y+	c #016D91",
"z+	c #FFFFFE",
"A+	c #000001",
"B+	c #000000",
"C+	c #000000",
"D+	c #18F7EC",
"E+	c #120818",
"F+	c #18FAA4",
"G+	c #091500",
"H+	c #091500",
"H               ) ) )               ) m <.3.o             X W 2+                                                              3 ",
"t.3.          } } } 4 ) u       = 5 B u u 3.a.,       k f.b.% q+@+    g k.X     r.|.i   O.T .+.+6.o '+}.    K Y J ^+=+o.}   } 3 ",
"u.N , 5.    C.m m u n $ v , ) > ) q 4 p 0.1.7.) Y   i.' i.k ' j.|.r  +Z b.e.u.% }.%+m m Q o '+2+~ o s.~ r   4.k g '+ +H , ~ I I ",
"i.g ~ i |+<.,+i Y 9.m m y.~ ) , ) B j ) o C.y.~ x.g.6.g a., i H s.' `.-+Z }+|.g i 2+o m p i H H = i o ~ 2.}+~ % r /+i.g 0+i I a.",
"j.~ 4.' }+`.s.~ m ]+I I 5.I 7.p g a.i p $ a.r+g j+X N ;.O ~ p o ]+~ 8+$+h x+|.<+r :+H u i = ~ ) ) ) } m 8+w.~ ' r 8+H ~ g i 4.u.",
"[.' x.J 2.9+a.~ ~ C.a.H T i C.g k r.~ ~ i } b+i 2+k o y.I ) S ) y.~ {+r h x+k z.k C.X 4.5.= ) ! > | < u 4+~ a.~ r (+~ % j K N p.",
"J ,+u.|.H {+O , C.r n.g.4.' (+b.k X X ~ ~ ~ o g Y u H H m } | ) C 3 Y o Z '+% l ' C.J H ,+o i i ) t < ;.;.) ]+~ J ]+} , ~ [.W $+",
"g C.r.J ~ a.5., 4.i 8+8+~ ~ ^+f.k |.8+t+~ ~ i ~ >.m ~ 9.i | ) < 4 B ~ k r Z f j ' 6.|.H 6.i ++i m B m >.} } r+~ H T , ~ 5.0.N i+",
"~ j.%+:+, s.p ~ k r =+j+' i W t.r ^+-+&+~ K C.X I ) } m.) ) } D.) i g H h.h  +e.r W Z.}.K ' 2+J o T } P 4.4.y.i n ~ } m 5.s.r ~+",
"% Y J J g o m i ) k }.}+' g r .+k p.v+`.i o w.|.I i i p+I ) R u , 5.)+<+c+& u+u+k.Z `.`.o g 2+}.i 6.~ ) H i ~ = ) i ) T M u u 0.",
"' |.`.`.]+r ~ 5.~ ~ O J 1+++o C.Y X t+X H K u.]+y.i H 2+~ } q m , U 5.K W W d.5+;+Z `.k+' r [.k.k j.g C.o , i y.} D.~ ) ~ } } 4.",
"g t.l+8+C.' ) o i g v ~ i.k k 3.[.r .+H j.i o K a.o 2.~+i ) = $ T g ' g Z ;+u+6+Z.`.`.9+% b+r ++k )+r q+} , M ;.~ m., m >.~ , o ",
"=+t+:+r B $ ~ g i H o , X r J f.r J [.i ]+H o , k X -+/+) $ ~ 0.,+H r i.9+8+r  +|.g }.C.~ ~ r j.r ,+r )+4., } , >+H m A.7.Y r ' ",
";+r k r U $ ) ~ t.{+, 0+1+:+2+<+a.H Y i .+0.$ , N o.$+ +, i |.>+.+g g.:+b.r k k $ ~ H o $ = ' .+Y N k 4.C., = F |+k % g X g Z s+",
"J }._+ +u.6.o i )+o+5.) ) } ~ } i B 9.~ N 4+i , ) i /+<.i 5.g.}+X 3.(+^+r , ~ g u o v = ) i ~ i.u M H o M ) ) y.y., = .+W `.k+Z.",
"W b.Z W r g i C.4+k } $ $ [ = $ . 4 o o H r.I = ) p 4+g ~ k }.8+N H Y i g O o 4.1+H 3 ~ S ) u C.m A.).} R m n y.} ~ z.k ;+l+#+|.",
"g h d.d.b.}.2+~+r g o u a > - ; . < m *.} o P , , y.y.' ,  +%+f.} < = ~ P J _+9+i., , 4.t } n < > 2 C B ! p } } < y.i s.o+u.k } ",
"W x+w+8+_+4+~+k g X 1+m =.@ @ [ @ 2 ).N.m z P ) } 5.o ~ s.o+f.~ = [ 5 ) g Y d.;+r Y ]+O } 4 * < @ 6 > 5 j ) } < 3 9.m C.H , < . ",
"8+%+Z.e.i.O o i $+w+m.3 1 _ 2 6 6 _ 1 @ S | q n } } i a.7.R , ) ) v v ~ i k W *+/+X i } = [ ) < _ b * @ ) | } ^.m = R ) F > 2 _ ",
"H 2.}.o I m *.L m+}+s > 2 &.2 2 b _ > E 2 E ) [ } ) i m.B , ! ! = m I j.J J }.J  +J } } p R ) -.- ^ b - - * > A.-.< < 3 ,.=.@ ^ ",
"u '.H u } m 1.*.n+< E ; @ @ > _ b _ b b - > [ > 3 O m [.5.= { q B i I o )+9+_+X H O ~ | R H i O.D @ + {._ [ @ -.z < ^._.w @ ( &.",
"@ =.t 3 D a 1 !+3 -.- - + 9 2 D _ V 2 > > 1 > > = v.3.C.O., = ! v T O J o }.2+(+>+4.} m ]+H i 1+3 @ _ / : + @ ,.< A E D K.^ ] /.",
"a %.3 w &.1 b a %.%.,.2 2 6 (.- 2 ^.1 w > > > > ) u o ]+0+~ $ ) ~ O O 6.~ , H O C.n+m C.C.o ' o+u s 2 ^ ..( @ ^.- < _ b _.+.9 9 ",
"H.a a ~.D E {.A L.,._ a ^ [ @ b =.9.x ]+a } 4 } , u ) i i $ ) u P i H ++i B.G } . 3 *.l.>., '  +3.v.a V ( ^  .,.2 1 1 @.( S.] 0 ",
"Q.a E.a a @.D I.2 @ @ &.+ ; 1 w )  +H x.u 3 v n ' Q ) ! ) $ ) v } ;.w.0.R B * . @ o l.q.m T k }.:+k.x 2  .] &.&.9 _.2 F.9 I./ _ ",
"g+@ J.a @._.+ _ + ^ #.@ + ; ,.s >+}+W t.m Y 7.o g y.| ! ~ ! s F -.} 1.[+) A . . V ).8.!+m R )+r 9+ +M 1 6 @.( &.1 +.+._.9 :.^ @ ",
"g+]  .9 L._ _ @ + $.e + @ A V y g.*+ +k.~ y ]+J r z.v >.j | u K.. . *.[+3 - + . 7 @ =.M.m >.u.J ` d.r > 2 : 0 &.@.9 ,.K.a Q.2 ^ ",
"g+] + X.&.@ + + / (.@ + 6 ^.D m (+Z 7+k.) v 3.g.J N } M.j n ).a++ @ a+A.> + + c ; + a :.7.m.H c.r ` o m a &.( @ !.9 ,.K.( U.+.2 ",
"g+] +.Q.9 @ + + V @.+ ^ {.A.:.L i.h #+Y m F u g.r.H L 3+O u ~.%.+ {.8 @ _ + @ c @ + z w 0.v.M O r <+r o -.a 6 9 !.@.+.Q.^ L.( H.",
"!.] E.H.@ + + ^ !.^ + #.A 7.M.8.N k h.I A.@ ;.p+|+) x x a.3 M._ 1 {.c + + + _ c + @ V 2 *.8.C.p ~ C.o H D.z #.0 ( F.+ Q.^ :.] d+",
"+.+.g+@.+ + + {.{.+ / $.8 t 9.M.m m s.H {.+ G 9.p+) w > !+x L.@ +.,.@ + + + 6 6 + / _ 2 a 1 ).> < B 7.u m -.@ $.+ F.9 Q.(  .+.e+",
"( Q.d+ .^ + @ {.#.+ c e > 3 < A.3 3 M D.b + {.> 9.> 2 - s s D ( {.!.+ c + ] / : # / @ @ - E - 2 - 6 B.) n B.+ (.+ /.F.F. .( d+E.",
"+.f+e++ {.+ ^ /.e / d : @ > D - > D a z @ @ 6 + 2 ( + ^ &.D @ {.{.{.+ #.+ ^ d / : ^ + @ . _ - ; 6 ^.R.6 + ) @ $.+ (./.!.] F.e+!.",
"L.d+Q.^ G.+ : (.#.$.: @ + [ b _ _ - :.- @ + 0 + 7 ^ + / V 9 ^ $.9 #.+ e + / d . : @ + @ @ ; [ / 7 7 : + @ * + {.+ ]...] ] d+d+9 ",
"d+!.X.+ T.+ @.(.^ $.^ _ @ . @ 7 7 @ 2 7 + / ; + 7 @ + 6 0 ( + ..9 #.+ #.] : 0 + d + ; @ @ + @ _ + ; # + . . @ (.+ (.6 + 9 Q.F.] ",
"!./.H.] H.] #./.+ $.@ ; ^ @ + . e + @ ; # @ # ] b + ] #...] + / ] ..+ d ^ ^ / # : + / . @ . + ; + @ # ^ + @ : ..] (./ ] !.H. .^ ",
"+.^ I.+ /. .( @./ {.] / @ # + + + + + + ^ # @ _ c + ^ $.e + + : + ..+ : : + + # / + / + @ + + @ . + + / + / c 9 ^ :.+ ( P.F.^ + ",
"..( /.] @./.( ( ( 0 + e + # + @ + + + + # # + / ..@ ] #.#.+ + ..@ ..] ^ e ^ + + # # + + / + + + + + + / + : / / 9 I.+ _ Q.H.] + ",
"/.] G.] 9 F.^ ] ^ : @ _ ^ c + # + + + # @ / + : 0 0 + #.{.+ + #.] ../ @ 0 + ] # + + + + c + c + + # + # # # : ]  .F./ ( J.P.+ + ",
"J. .F.@.9 /.^ ^ : ^ ^ + c # + c + + + # + ^ ; / 0 b + #.(.+ + $.$.#.6 ^ d + ] / / # + # # + c + + + # # # + e ] @.F.G.+ J.Q.] + ",
"Q.P.Q.!.( /.] @ ..0 / + : @ + / + + # / # + : ] e 6 + 0 /.^ + 0 /.b 0 ] : ^ + ^ / + @ # + + / + + . # # # + c .. ././.^ P.g++ + ",
"!.Q.Q.F.] #.9 ] : d @ # ; + + / # + # + # @ ; @ b ( + ] #./.+ ^ 0 #..._ + : + @ / + + # + + c . + + # + c + ^ ..9 /.G.+ !.f+..+ ",
"( !.Q.H.9 ] {.] / #.+ / ] + + # + + # + / / + + #.+ + 6 ( $...] ] b $.6 + : ^ + : + + + + + # + + # + + c # ^ 0 ( H.9 + +.J.T.] ",
"( ( P.Q./.+ $.( ] ].+ ^ / + + . + + + + / c + + e ] + {.] : $._ + / #.b @ @ / + c + + # + + + # + + + # c : #.] ] T.] ( !.+.X.G.",
"&.+ +.T.G.^ ( ..] $.+ + c + + + # + + # @ : + + e + + #.@ ] : #.+ + 6 d : + / + _ + + / + + + # + + + c + : $.+ ^ I.^ ^ P.( /.X.",
"I.+ + /.G.#.+ ..^ d ^ + c + + + # + + # @ / + + e + + #.] + / #.+ + ^ d d + _ / ^ # + / # + + # + + + d . _ $.+ ^ S.+ + Q.( ( {.",
"I.^ + 9 G._.^ 9 d : : @ c # + + + + + # # . # + e + @ {.+ + 0 0 @ + ] : d : ^ : + / + # + + + + + + # # c @ 0 + ] W.+ @ Q.] ] b ",
"/.( + : +.G.b ( {.^ e + c + . + + / # # : + # # d ] 6 : + : _ ^ ^ + # ^ d d + / + # / + + . + + + c + + : 7 @ / ^ S.+ _ X.^ + &.",
"6 : + ..^ /.G.@ 0 ^ _ e + + # + # + # # / + / + 0 ^ $.^ + $.^ ^ # + d + _ : : @ / + / + + # + + + + # + / e @ : ] (.^ /.(.] @.@.",
"../ + $.^ @./.0 ( d ] c # + # + + # # + : + : ^ / 0 #.] + #./ ^ @ + e + ^ d : + / + # / + # + + # + + _ @ #.] 0 ] /.0 T...+ T.9 ",
"b ^ ] :.^ 9 /.{.+ @.+ ^ c + + + + c # + : + c + ( #./ ^ + /.^ _ + + e + @ b : + : + + # + # + + # + c e @ e @ #.( @.(.T.( + X. .",
"b @ + I.] 9 /.{.+ ..+ + e / + + d c + + ^ + / + .._ ] / + #._ / + + e + ^ d : + c + + . # + + + . + d / ^ c + b ] ..S.9 ..] Q.9 ",
": ] + I.+ : :.@.+ #.@ ^ # / @ e c + + + + + + : d + + : + d #.+ + + e + _ 0 / + : + + ^ # + + + + ].].# + : ^ +.@ G.#.] ..+ T.+.",
"; + + U.+ 0 :. .+ c ^ + ^ c e d / + + + + ^ + : @ ^ + ^ + 0 (.+ + @ $.+ _ d _ + @ / + + + # + # $.e # + @ ^ @ ^  .(.] ( ..+ _.J.",
"+ + ^ U.+ #.:.( @ _ d + ^ + c + $.. + + + / / : + / + ] ^ / $.+ + # e + c e + @ + / + + + @ # c d c + # # + ( @ /.( _ ] #.+ !.g+",
"+ @ _ V.+ {.:.@ ^ + #.+ ^ ; / + d + + # + @ c + ^ + + c + + e + + + : + 7 c + # + / / + + . @ e @ e @ / + ] 6 ( b ] : + ^ _ @.Y.",
"+ + @ $.+ /.R.+ 6 ] / e # + ^ : @ + / # + @ c + + + + @ + + c / + + @ @ e _ + # + + / : + + $.+ + : + @ c : ^ {.@ _ @ / $.] ] G.",
"6 + + @ @ S.7 + : + @ e e + + d @ / ; ^ + @ + + # + @ : + + ^ : + + + 7 e + + + + @ + / / ; @ + @ @ ] : d ] @ @.] + / : / + ] V ",
"#.+ ] @ /.:.@ + ^ + @ + d e / @ _ / + + + / + # # + + c + + + / + + _ e @ + + # + + + @ / e / + 6 ^ ^ : : + ( _ + : + ] $.+ + ] ",
"{.+ + @ U.( + ^ / _ + + + : d : _ @ e + + : + : # + + / + + ^ ^ / + 0 ; + @ c # @ + ^ @ : / @ _ e ] / / @ _ d ] / 0 # ] ].+ ^ + ",
"^ ..] W.9 + + (.@ ] ^ c @ : + : / 0 0 @ ^ @ + # @ # + ^ ^ + 0 + # / : @ + + c + @ + # + c e $.+ 0 + ^ d ] ^ d + $.^ : + c ] ] ( ",
"] 0 6 {.+ + ^ $.+ / + ^ + d + + e ]./ + ^ # + + @ : + + c + #.+ + #.+ ^ + @ @ + # @ @ @ 0 @ + @ c + @ d ] : : + : / 0 + / ^ ] /.",
"+ + X.] d ] ^ ^ + @ @ @ + e + + 0 (.@ ^ @ + + + + d + @ : + $.+ ^ c ^ ^ + #.+ # # + # + / @ @ @ : @ @ _ + _ : + ] ^ ..+ ( @.] I.",
"+ #.b ( d @ 0 ^ ^ + # @ + _ @ @ : : + ^ + ^ # + + d + + ^ + $.+ 0 + {.9 / : c / # + / + : @ @ + ^ @ : @ ^ + _ + + @ S.+ ] {.] X."};
