/* XPM */
static char * trees1_xpm[] = {
"64 64 257 2",
"  	c None",
". 	c #0F0700",
"+ 	c #041200",
"@ 	c #0D1301",
"# 	c #0E1F00",
"$ 	c #110600",
"% 	c #130A01",
"& 	c #100D0A",
"* 	c #190D00",
"= 	c #151002",
"- 	c #14120A",
"; 	c #131D04",
"> 	c #1B1203",
", 	c #1C1508",
"' 	c #1C1D04",
") 	c #1F1809",
"! 	c #1B1A10",
"~ 	c #162304",
"{ 	c #142A00",
"] 	c #182005",
"^ 	c #192209",
"/ 	c #1B2B04",
"( 	c #1E2C0B",
"_ 	c #153A00",
": 	c #1B3300",
"< 	c #1A3900",
"[ 	c #221301",
"} 	c #211608",
"| 	c #231B04",
"1 	c #231A0A",
"2 	c #281500",
"3 	c #291B00",
"4 	c #2A1D0C",
"5 	c #241A12",
"6 	c #311F00",
"7 	c #301F0E",
"8 	c #222606",
"9 	c #252309",
"0 	c #242C06",
"a 	c #242C09",
"b 	c #2C210C",
"c 	c #2E2B0B",
"d 	c #222412",
"e 	c #212419",
"f 	c #222C11",
"g 	c #2D2211",
"h 	c #292B12",
"i 	c #292C1D",
"j 	c #213404",
"k 	c #23340B",
"l 	c #253B04",
"m 	c #243B0A",
"n 	c #283605",
"o 	c #283D05",
"p 	c #293F09",
"q 	c #253112",
"r 	c #2C3112",
"s 	c #2A331D",
"t 	c #2E3C19",
"u 	c #342400",
"v 	c #32230C",
"w 	c #332A0D",
"x 	c #392600",
"y 	c #382C00",
"z 	c #3A2C0E",
"A 	c #322411",
"B 	c #332518",
"C 	c #342A12",
"D 	c #312F18",
"E 	c #3A2C11",
"F 	c #35320C",
"G 	c #313B06",
"H 	c #35390B",
"I 	c #3B3B0D",
"J 	c #313711",
"K 	c #36361B",
"L 	c #3D3113",
"M 	c #2D3324",
"N 	c #363A24",
"O 	c #1F4200",
"P 	c #254103",
"Q 	c #264C00",
"R 	c #294304",
"S 	c #2A4209",
"T 	c #2D4A04",
"U 	c #2F4C0E",
"V 	c #2C5200",
"W 	c #2B5C00",
"X 	c #354308",
"Y 	c #304D04",
"Z 	c #314C08",
"` 	c #3C430C",
" .	c #394A07",
"..	c #3A490B",
"+.	c #32411D",
"@.	c #324B12",
"#.	c #3C461C",
"$.	c #335304",
"%.	c #33510A",
"&.	c #365904",
"*.	c #385A05",
"=.	c #3B5C0A",
"-.	c #345111",
";.	c #385213",
">.	c #3E541E",
",.	c #3D5C12",
"'.	c #344122",
").	c #394724",
"!.	c #39412C",
"~.	c #394923",
"{.	c #3E5024",
"].	c #356200",
"^.	c #366F00",
"/.	c #3C6304",
"(.	c #3C6008",
"_.	c #396800",
":.	c #3F6110",
"<.	c #3C7A00",
"[.	c #432F11",
"}.	c #40300F",
"|.	c #423213",
"1.	c #403419",
"2.	c #453913",
"3.	c #493414",
"4.	c #4B3B13",
"5.	c #4D3F1A",
"6.	c #523B16",
"7.	c #513D18",
"8.	c #45410E",
"9.	c #444C0C",
"0.	c #4A4411",
"a.	c #4D4A10",
"b.	c #415B1B",
"c.	c #524015",
"d.	c #54431A",
"e.	c #5C4217",
"f.	c #59471A",
"g.	c #494724",
"h.	c #405227",
"i.	c #435429",
"j.	c #445B24",
"k.	c #455037",
"l.	c #4B533E",
"m.	c #4E5F36",
"n.	c #406705",
"o.	c #42660C",
"p.	c #416B04",
"q.	c #446C0B",
"r.	c #4D680A",
"s.	c #426313",
"t.	c #456319",
"u.	c #446811",
"v.	c #486C14",
"w.	c #496A1D",
"x.	c #457204",
"y.	c #467108",
"z.	c #457801",
"A.	c #487605",
"B.	c #48740A",
"C.	c #4A7B04",
"D.	c #4C7A09",
"E.	c #4E7417",
"F.	c #52720A",
"G.	c #517E0C",
"H.	c #50741D",
"I.	c #537B1B",
"J.	c #486221",
"K.	c #4B622C",
"L.	c #50623C",
"M.	c #56683C",
"N.	c #597C27",
"O.	c #5A7A2C",
"P.	c #59733B",
"Q.	c #5C7833",
"R.	c #624718",
"S.	c #624A19",
"T.	c #694E1A",
"U.	c #65531C",
"V.	c #69511C",
"W.	c #74571F",
"X.	c #685520",
"Y.	c #6E5A23",
"Z.	c #7A5F20",
"`.	c #617B39",
" +	c #4E5246",
".+	c #505747",
"++	c #535E43",
"@+	c #595D53",
"#+	c #5B6946",
"$+	c #5C7043",
"%+	c #606659",
"&+	c #637944",
"*+	c #697459",
"=+	c #4E8104",
"-+	c #4E8008",
";+	c #4E8800",
">+	c #508404",
",+	c #548B04",
"'+	c #57890D",
")+	c #5A851E",
"!+	c #569103",
"~+	c #599304",
"{+	c #5C9A04",
"]+	c #5EA005",
"^+	c #609D05",
"/+	c #668C2F",
"(+	c #668735",
"_+	c #63A405",
":+	c #65A903",
"<+	c #69AD04",
"[+	c #6BB104",
"}+	c #70B605",
"|+	c #6B8149",
"1+	c #6E8153",
"2+	c #788F55",
"3+	c #6DC000",
"4+	c #76C405",
"5+	c #816426",
"6+	c #806D25",
"7+	c #FF00FF",
"8+	c #00000F",
"9+	c #000000",
"0+	c #000000",
"a+	c #BB0D49",
"b+	c #BAABCD",
"c+	c #000000",
"d+	c #000000",
"e+	c #BB0D49",
"f+	c #18F7E0",
"g+	c #18F7FC",
"h+	c #080230",
"i+	c #FB91B6",
"j+	c #18F848",
"k+	c #016D91",
"l+	c #016D51",
"m+	c #E36E53",
"n+	c #00000F",
"o+	c #BB0D49",
"p+	c #18FAD4",
"q+	c #000024",
"r+	c #000001",
"s+	c #000000",
"t+	c #000000",
"u+	c #000070",
"v+	c #FFFFFF",
"w+	c #FFFFFF",
"x+	c #016CE9",
"y+	c #016D91",
"z+	c #FFFFFE",
"A+	c #000001",
"B+	c #000000",
"C+	c #000000",
"D+	c #18F7EC",
"E+	c #1505D0",
"F+	c #18FAA4",
"G+	c #0F0700",
"H+	c #0F0700",
"                                                                                                                                ",
"                                                                                                                                ",
"                                        _.                                                                                      ",
"_.                                      /._.    _.        _.*.                                        *.    @+            l.  _.",
"l       _._._.    _._.          @+  )+W M.*.p.&+_.q.*+x.*._.                _.          *.    !.    _./.  k.'.   +        _ _._.",
"O     Q $+$+V -.O.Q.P._._.  _._.2+3+~+k R ,+~+l &.*.{ /.z.*.|+              /._.        _./._.)+_.p.*./.T v.o.h.x.1+l %+  _._.O ",
"].=+z.T P ,+C.T /.V : q.: _.V i.u.~+~+o l <+,+T %.p./.>+(.T D.Q.P.  &+W j._.p./.S { .+_.x.=.3+~+m R ,+~+p &.*.{ *.z.&.T _._.O P ",
"G.[+=+] %.<+>+l /./.S C.$.R $.Y $.C./.C.l ~+p.R T U }+C.$./._+C.T P ,+C.T /.Y : q.{ $.T Z s.~+~+P l :+,+T %.p.(.=+(.T D.%._ -.L.",
"/.x.C.&.T [+/.T U /.<+C.A.>+C.-+A.^+x.$.T Y q./.$.$.x.=.%.B.<+=+] %.<+>+l /./.R C.$.R $.T &.C./.D.l ~+q.R T T [+>+$.R C.{+x.Q.,.",
"x.{+*.p.S p.*.Y T $.~+D.~+,+C.n.R *.p./ ( : x.{+T /.$.$.R /.x.C.&.T <+(.T T /.<+C.A.>+C.=+A.^+x.$.T Y p./.$.%.>+/.R l p.C.U _.:.",
"$.,+/./ j R =+=+$.$.l T T *.D.C.p.j m *.&./ C.~+U $.$.=.D.x.{+*.p.S p.*.$.U $.~+C.~+,+C./.R *.p./ / k x._+T p.&.*.S l A.R p.y.s.",
"T p R S P ( {+C.%.x.S j R {+{+=.Y j /.>+$.S $.p.E.C.p.A.p.$.,+(.: j R =+=+$.$.l U T *.B.>+_.j l *.$./ C.,+U >+$./.*.R R p.=+[+[+",
"&./ &.=+Y l x.x.$.A.T *._+>+/.$.: D.^+p.B.n.*.$.P l *.x.A.T o R R S / {+D.$.x.S l R {+{+*.Y k /.>+%.Y $.p.*.Y &.>+R ^ $.l (.!+z.",
"/ p.^+x.x./.$./.q.; _.<+p.%.x.%./.,+l j / / P l ^ ] $.~+x.&.( *.C.Z l x.x.$.A.T *.^+>+/.%.: D.^+p.C.(.*.$.=+] Z ,+R /.>+p.!+t.T ",
"&.{+%.R R p T T z.j D.U $.{+_+~+C.T y.j p l j U ~ S ,+/.T / p._+x.y./.%./._.; (.[+p.$.x.$./.,+l j ] / p T q.l l x.: '+p./.R s.T ",
"C.R $.^ : / p *.T o R *.D.=+x.$.m [+p.&.Z : / j.z.C.$.p.U &.{+Z R R P U Z z.k C.T %.{+_+~+D.T y.j P m : /.T l T U _.=+( / : /.'+",
"$._+p.%.T j k T p / R n.l &.R ( &.~+R P k l l <.o.T >+,+=+C.T $.( : ( P &.Y l R /.C.=+x.%.l [+p.*.U : / k P m j R /./ / Y &.=.x.",
"/./+$.%.j / : ~ / o Y P &.*.&.R *.q./.l $.*.*.++>.>+]+,+y.R _+p.$.T j j T R / S /.m &.R / *.{+R P m j P ] / / R p./.( R $./.~+=+",
"~+x.&./.m.] m j ] &.!+p.B.*.$.p.x._.o.R /.q.$.( T T &.R / (.{+T %.: k : ^ / p T R &.*.$.R =././.l $.&./.S : ( j *.x.~ l /.Y j /.",
",+(.R D.q.T ] R k T }+4+$.l =.:+*.R /.T l C./.;.m *./.R k =+C.T ( Y $.%.: ~ &.,+p.C.(.$.p.x./.o.R (.p.p.Y T P k j ^ : S /.(.T p.",
">+$.R x.{+x.J.I./.R >+~+x.~ x.[+n.S _.o./.=+R H.&.x.=.C.T !+p.( Y p.&.q.$.k T }+4+%.l &.:+=.R p.T j -+_.o.x.$.&.T l U Y Y =+: [+",
"/.T j /.C.R ].b.j.Y B._.D.$.(.~+T T R C.[+D.,+,+l l C./.( ~+R j p.=.: Y /./.S >+~+x.] q.}+_.T /./.o.>+R p.=.>+$.$.*.&.q.x.(.T C.",
"&.R k x.T q.=+w.`.C.=+^+Z *.R (.p.%.$./.(+I.<+~+] l C.Z &.x.$.T x.$.j q.Y T Y x._.D.$./.~+R Z p C.[+/.l /.,+{+$.y.C.T T {+P p.*.",
"&./.o o /.C._+3+W $.S C.R ( / T _+/./.=.< &.C.D./.P q./.&.$.%.~+C.R T >+C.D.C.D._+T *.S /.p.$.%._.>+Y l U ,+*.*.B.$.R /.!+U =+*.",
">+$.~ &.R /.!+B.(+C.T j T /.l l :+%.N.H.B.x.~+/./.R p./.R R R _+p.=.!+~+>+B.$.T C.R ( / R _+p././.=.$.( *./.R C.&.T R Z p./.R $.",
"'+R (.,+p.!+,.<+C.&.R l =+p.Y T I.=+!+C.p.$.>+x.k / p x.=+U /.p.R Y U $.p.C.C.T j T /.R m _+*./.C.R x.R Y T D.!+4+~+(.$.S >+: o ",
"A./ >+y.$.R y.x.*.P S {+>+y.x.(.V _.q.p.A.$.l U o R / =+!+R =+T R R / n.<+C.%.R m =+p.Y R p.p.Z &.q.C.~ l $.o '+{+=.l l U /.R k ",
"T /.=+( : : &.x.p.T >+q.: / ( : ).m =+{+x./.: T =+$.m _.D.$.x.$.B.Y x.^+x.*.P R ^+>+q.x.(.Y y.&.] C.x.j '+_.>+C./ l l j &.Y l R ",
"R /.( : Y *.o._.~+~+%./.$.: S / ] s._+p.Y j %.^+C.x.(.%.*.x.] =.x.{+{+%./.p.T >+q.: ( / : U $._.; q.T Y ~+*./.R /.U : ( / l l : ",
"p.x.] R $.*.;+=+p.R p.<+T (.l {.x.,+=._.&.R _+*.S T P $.T C.j j *.p.l x._+~+~+$./.%.: R : U *.T l *.m !+$./ ( R ,+&.l R / ^ / l ",
"$.x.] m (.$.~.t.l / '+x.Y m j T x.S z.,+D.>+T $./ / : k &.%.P / j / x.-+=+q.R q.:+Y /.m j ( l l m / /.T / m $.$./.C.U p.T j / : ",
"j ] : j &.R A.&.T T ~+n.j P R ~ ).z._+~+C.S ~+C.T %.j j Y R P ( j /.%.R $.l / !+p.Y l j l j ~ / : &.B.l j Y $.=+~+p.$.x.p.%.R l ",
"&.l l ] K.^.&.A.p.%.~+$.l q.R ^ T $.$.T / Y :+Z &.l : k ~ / ( R $.T j C.$.T T ~+q.: p &./.$.j ( / U =+R / T o.j T ~+>+y.=+R p.$.",
"=._.T j P / S ~+: $.C.T $.A.l {.:.Z p.S j y.,+$.( R $.$.j / ] o C.x.S /.x.q.$.~+$.j q.$.(.p.*.l l j / / l Y A.l =./.$.=.C.R x./.",
"s.x.$.l / k $.p.$.*.=./ *.x.*./.,+/.=.-+T =+C.j R p.$.y.&.l j j P p / R ,+: %.C.T %.A.l $.!+%./.$.*.P m $.j C./.C./.T l /.C.,+'+",
"b._.u./.$.R Y $.y.T l T x.p.A.p.*.l q._.( =+/.=./.(.T C.q.$.$.U l / j *.o.$.&.*./ *.x.=./.>+$./.x.$.p.T &.k T =.x.$.S l $.p./.x.",
"#+D.q.$.x.T U T P m l $.%.$.*.p.$.S _.K./.&.R T x.*./.>+A.l p.*./.$.R Y $.A.T l U x.p.x.p.*.T %.{+m p.*.C.p.R T $.T l l l k &.P ",
"{+&.=+*.p./.C.j R /.R T l j {+~+l l j T T $.*.+.x./.q.&./.l =+p.$.p.$.R Z P l l $.$.$./.p.$.R l >+$./.q._+C.$.,+R /.U T l C.p.~+",
"p.J.T : p.&.p.T / C.o *./.>+,+*.R / A.*.p.@.] E.x.$.$.R *.'+!+=+*.x.(.C.j R (.R T l j {+~+l l j T /.*./._.y.$.(.&.-+l / Y R /.z.",
"p.l l m &.&.Y R S &.l y.:+C.$.p.U /.!+o j S z.=+R $./.l T R $.S : x.%._.U / C.l *./.>+,+*.S / A.*.p.C.p.%./.x.; /.,+k _.C.(.p.~ ",
",+T &.: a j R l j l *.=+$.a ,+~+,+x.R *.b j ;.R /.{+~+y./ p.P j l &.&.$.R R *.j x.:+A.$.p.T /.!+j j j 0 T T x./ T x.j ~+p.B.l ~ ",
"H.$.j : c 4 ) / P $.l F 9 ..{+C./...[+*.A m ~ &.>+-+_.P ~+'+T &.: 9 n R l j l *.=+$.c ,+~+,+x.Y *.b ' , o &.U j &.R p.D.: / l &.",
"_./ Y %./.1 b ] 0 R X 7.b F V R E r.F.4 1 0 l R $.T : p {+&.$.j l a 4 ) / P $.l F 9 ..!+C./.` [+=.v j F 9 H R l : %././ : Z T =.",
"Y S x.T C.w A 4 b F / 6.w v R ` F ` a.n 0 R g.;.p.$.S _.~+$./ U *./.| 4 ] a R X c.b F $.R E r.F.5 | 0 1 7 c / / T p.T ( T Y x.~+",
"~ k &.M I.p.0 } 3.I j z 2.0.a.0.F 0.V c 9 4 X q.$.,+T x.=+m S p.l x.c A 4 v F / 6.w w R ` F ` a.o c R L ..l / / l C.p.; U /.R -.",
". . . ~ h.&.^ h v 2.Y 4.4.0.4.I 4.> } A . K ~ P T &.@.C.,./ ,.V ] s.$.c } 3.I j F 2.0.a.8.H 0.V c 9 4 9.&.&.S l k j / : : p.] . ",
". . . q . < { ~ > 1.8.4.4.S.b d.b . 1., 9 t ~ k ] ] $.$./.T b.= @ +.] s K v 2.Z 3.4.4.0.I 3.9 1 A % r M ~ Y V *.$.S / m ^ ] . . ",
". . @ . . / ~ ^ | E z |.[.T.|.S.. 1 C 5 G ^ @ . @ = $.v.b.&.#.. = . . . ~ > |.8.4.4.S.b d.|.2.1., ] ~ @ j u.N x.$./.l ~ 8 . . . ",
". . + . . q { e = E 7.|.e.R.U.4.. 1.1 B j . . . . $ @ r ] Q i > . . . @ ~ 8 E E |.b S.|.d.4.L C 5 a ] @ . . .  .v.b.l ~ = . . . ",
"% . . . . . ^ . > C 3.1 Z.f.6+|.} 1.1.1 = . . . . . . % % 3 % | . . . . d % C 7.v . E c |.2.|.1 d ~ # . . . . % f ~ ] J % . $ % ",
". . & . . . . . = 9 C b T.3.V.|.E E C , = . . . . . > $ [ [ 3 % . . . . = % C 3.1 4.} . , b 1.1.1 ~ . . . . . . . | = 3 % . . . ",
". . . . . . . . = 1 C |.|.4 z A 3.b , = > . . . . . % . u [ y % . % % . . ) A C b [.4 1 E E E D ' ] . . . % . . % % . . . * . . ",
". . . . . . . . ) v E 6.z v 3.v |., = = . . . . . . . . 3 % 3 % . . . . . = 4 C |.E } w v 3.v 5 > ! . . . % . . * $ . * . $ . . ",
". . . . . . . . } 3.3.c.6.v 5+3.E 1 = % . . . . . . . % % . . . * . . . . = 1 E 6.}.4 A v |.1 1 > . . . . . % * > * . x * . . . ",
". . . . . . . . > 1.E v Z.v X.S.v v 4 . . . . . . . $ * $ . $ . $ . . . . , |.3.c.6.1 4 v E 1 v . . . . . . % . . 6 . 3 3 . . . ",
". . . . . . . > > C w v f.T.1 Y.v 5 C . . . . . . % % > * . x * . . . . . > |.E v W.v |.f.v v A . . . . . . . . . [ 2 . 3 . . . ",
". . . . . . . = ) b b L 1 e.} E 5.4 E $ . . . . . % . . 6 . 3 | . . . . ! [ C C v f.T.1 Y.b 5 E . . . . . . . . $ . [ . . > . . ",
". . . . . . % = , v E 4.1 3.1 - f.E A > - . . . . . . . [ 2 . 3 . . . . = , b b z } f.} E 5.4 E . . . . . . . . % . % . . [ $ . ",
". . . . . . = = 1 v E 4 b b [ } 1 A } % > . . . . . . . . [ . . > . . % = ) v E 4.1 [ % % f.E A [ - . . . . . * * . % . . $ % . ",
". . . . . % , * > 4 4 1 > > } * , g 1 > % = . & . . $ % . * . . [ . . = . , 4 1 ) 4 > % & E 2.5 > = % . . . . 2 . . * . . . % . ",
". . . . . > b > , 4 4 5 1 4 4 , } 5 4 1 % % . . . . * * . % . . % % . . , , % . 1 5 4 % % 1 g g 1 > = . . . . $ . . [ . . . % . ",
". . . . . , 4 , % > 1 4 > , 1 * % 4 4 , % . . . . . 2 . . * . . . % . , 5 4 , . 1 4 } % % % , 4 b , % . . . $ . . % > . . . % . ",
". . . . . & 4 , % . . & . % 5 * . . , . % . % . . . $ . . [ . . % = . . , , $ $ % } % % $ . % , , . . . . . . . . . $ . . % . . ",
". . . . . . . & . . . . . . & . . . . . . . = . . $ . . % > . . . . . . . . % % % . . . . & . . & . . * . . . . . . . . . [ . . "};
